<svg version="1.1" id="Layer_1" xmlns="http://www.w3.org/2000/svg" xmlns:xlink="http://www.w3.org/1999/xlink" x="0px" y="0px"
	 width="100%" viewBox="0 0 720 720" enable-background="new 0 0 720 720" xml:space="preserve">
<path fill="#333333" opacity="1.000000" stroke="none" 
	d="
M0.999997,614.000000 
	C1.000000,445.641754 1.000000,277.283508 1.194191,108.123795 
	C3.584471,92.402809 7.511063,77.902657 14.814426,64.724342 
	C31.851330,33.982655 57.394482,13.730193 91.531731,4.669991 
	C96.651840,3.311089 101.842163,2.216733 107.000000,1.000000 
	C275.691559,1.000000 444.383148,1.000000 613.868042,1.209414 
	C615.304871,1.578755 615.939819,1.806548 616.593079,1.888940 
	C664.395142,7.918012 705.353821,44.019405 717.082336,90.546112 
	C718.539368,96.325981 719.701355,102.180214 721.000000,108.000000 
	C721.000000,276.358246 721.000000,444.716461 720.804565,613.870789 
	C720.107910,617.104919 719.579224,619.537781 719.109436,621.981873 
	C710.872986,664.836121 686.291321,694.710266 646.474365,711.770264 
	C636.214844,716.166138 624.854614,717.992981 614.000000,721.000000 
	C445.641754,721.000000 277.283508,721.000000 108.131958,720.790588 
	C106.859886,720.443054 106.389458,720.254395 105.901207,720.174011 
	C58.446671,712.362427 25.347364,686.548828 8.118620,641.406799 
	C4.773560,632.642212 3.323925,623.154297 0.999997,614.000000 
M510.562439,443.953430 
	C509.332184,442.602325 508.183777,441.164612 506.859375,439.913147 
	C487.898224,421.996094 467.016266,407.057281 442.899078,396.593384 
	C418.584900,386.044006 393.386566,380.625702 366.945343,380.494904 
	C362.781158,380.474304 360.835144,381.260986 360.871857,386.243317 
	C361.119873,419.889801 361.099731,453.539673 360.886047,487.186615 
	C360.856781,491.800354 362.461395,493.040253 366.696899,493.520844 
	C383.714600,495.451721 399.945892,499.842804 414.314209,509.726105 
	C432.319916,522.111328 443.244965,539.574585 450.617981,559.673950 
	C453.793549,568.330811 454.046600,568.450439 463.171478,568.453979 
	C494.487732,568.466064 525.803955,568.476440 557.120178,568.430115 
	C560.245239,568.425476 563.369751,568.029663 566.705994,567.800903 
	C566.802856,566.370422 567.064087,565.226013 566.927368,564.131348 
	C564.088501,541.390259 558.402893,519.451233 548.587463,498.650635 
	C539.075439,478.493073 526.206238,460.675171 510.562439,443.953430 
M448.085052,169.668015 
	C446.776459,172.534149 445.594757,175.466522 444.138824,178.255753 
	C434.350067,197.008820 420.320068,211.400665 400.329712,219.033173 
	C388.889160,223.401291 377.116547,226.932190 365.389435,230.497940 
	C361.827148,231.581116 360.912811,233.301910 360.926025,236.829010 
	C361.051453,270.320129 360.997833,303.811890 361.010620,337.303467 
	C361.011169,338.745575 361.156403,340.187622 361.279541,342.468414 
	C374.649597,341.045532 387.776062,340.324829 400.649994,338.125702 
	C421.896881,334.496338 441.837341,326.885376 460.730255,316.391754 
	C478.896881,306.301575 495.251587,293.861511 509.718964,279.065094 
	C525.015015,263.421204 537.717957,245.803879 547.382385,226.083740 
	C557.561829,205.312683 564.273071,183.558182 565.972351,160.403976 
	C566.467224,153.660812 566.304382,153.599350 559.455261,153.612778 
	C530.318115,153.669846 501.177277,153.508514 472.045319,153.936874 
	C456.404541,154.166885 455.563293,149.795212 448.085052,169.668015 
M265.458832,411.982666 
	C231.938904,390.361694 195.405228,379.553802 155.001068,380.486938 
	C155.001068,382.775269 155.001068,384.251801 155.001068,385.728333 
	C155.001053,419.536102 155.094543,453.344421 154.890259,487.150940 
	C154.862732,491.705658 156.346542,493.126831 160.661469,493.514282 
	C173.167358,494.637299 185.125885,498.113434 196.435303,503.501709 
	C219.400696,514.443359 234.054291,532.892578 243.009476,556.233826 
	C247.133698,566.983398 248.972870,568.450562 260.549713,568.455078 
	C290.527039,568.466675 320.504364,568.477783 350.481628,568.430481 
	C353.575226,568.425598 356.668274,568.026550 359.667023,567.817017 
	C359.815063,566.768433 359.981842,566.268127 359.940063,565.785889 
	C357.257416,534.802734 348.031219,505.839844 331.688995,479.443665 
	C314.871704,452.280212 293.212616,429.561066 265.458832,411.982666 
M205.294724,213.797714 
	C190.010971,223.496689 172.727142,227.275009 155.349380,229.981049 
	C155.349380,267.409058 155.349380,304.136261 155.349380,340.984833 
	C156.649750,341.143585 157.620712,341.360016 158.593063,341.366425 
	C179.871552,341.506683 200.625412,338.087830 220.716293,331.246918 
	C255.571991,319.378601 285.157471,299.374847 309.549957,271.850677 
	C337.873199,239.891037 355.602295,203.127884 359.149475,160.118088 
	C359.672913,153.771744 359.582458,153.613739 353.252441,153.610931 
	C320.943420,153.596558 288.634369,153.602112 256.325348,153.604095 
	C247.505844,153.604645 246.680786,154.031311 244.010742,162.657150 
	C237.356903,184.152908 224.590881,200.975113 205.294724,213.797714 
z"/>
<path fill="#47704C" opacity="1.000000" stroke="none" 
	d="
M721.000000,107.531342 
	C719.701355,102.180214 718.539368,96.325981 717.082336,90.546112 
	C705.353821,44.019405 664.395142,7.918012 616.593079,1.888940 
	C615.939819,1.806548 615.304871,1.578755 614.330688,1.209414 
	C649.593628,1.000000 685.187195,1.000000 721.000000,1.000000 
	C721.000000,36.353928 721.000000,71.708305 721.000000,107.531342 
z"/>
<path fill="#47704C" opacity="1.000000" stroke="none" 
	d="
M614.468628,721.000000 
	C624.854614,717.992981 636.214844,716.166138 646.474365,711.770264 
	C686.291321,694.710266 710.872986,664.836121 719.109436,621.981873 
	C719.579224,619.537781 720.107910,617.104919 720.804565,614.333435 
	C721.000000,649.593628 721.000000,685.187195 721.000000,721.000000 
	C685.646057,721.000000 650.291687,721.000000 614.468628,721.000000 
z"/>
<path fill="#47704C" opacity="1.000000" stroke="none" 
	d="
M106.531342,1.000000 
	C101.842163,2.216733 96.651840,3.311089 91.531731,4.669991 
	C57.394482,13.730193 31.851330,33.982655 14.814426,64.724342 
	C7.511063,77.902657 3.584471,92.402809 1.194191,107.661148 
	C1.000000,72.406731 1.000000,36.813469 1.000000,1.000000 
	C36.020588,1.000000 71.041634,1.000000 106.531342,1.000000 
z"/>
<path fill="#47704C" opacity="1.000000" stroke="none" 
	d="
M0.999997,614.468628 
	C3.323925,623.154297 4.773560,632.642212 8.118620,641.406799 
	C25.347364,686.548828 58.446671,712.362427 105.901207,720.174011 
	C106.389458,720.254395 106.859886,720.443054 107.669312,720.790588 
	C72.406387,721.000000 36.812775,721.000000 1.000000,721.000000 
	C1.000000,685.646057 1.000000,650.291687 0.999997,614.468628 
z"/>
<path fill="#E65100" opacity="1.000000" stroke="none" 
	d="
M510.856628,444.152863 
	C526.206238,460.675171 539.075439,478.493073 548.587463,498.650635 
	C558.402893,519.451233 564.088501,541.390259 566.927368,564.131348 
	C567.064087,565.226013 566.802856,566.370422 566.705994,567.800903 
	C563.369751,568.029663 560.245239,568.425476 557.120178,568.430115 
	C525.803955,568.476440 494.487732,568.466064 463.171478,568.453979 
	C454.046600,568.450439 453.793549,568.330811 450.617981,559.673950 
	C443.244965,539.574585 432.319916,522.111328 414.314209,509.726105 
	C399.945892,499.842804 383.714600,495.451721 366.696899,493.520844 
	C362.461395,493.040253 360.856781,491.800354 360.886047,487.186615 
	C361.099731,453.539673 361.119873,419.889801 360.871857,386.243317 
	C360.835144,381.260986 362.781158,380.474304 366.945343,380.494904 
	C393.386566,380.625702 418.584900,386.044006 442.899078,396.593384 
	C467.016266,407.057281 487.898224,421.996094 506.859375,439.913147 
	C508.183777,441.164612 509.332184,442.602325 510.856628,444.152863 
z"/>
<path fill="#ED6C02" opacity="1.000000" stroke="none" 
	d="
M448.210388,169.304504 
	C455.563293,149.795212 456.404541,154.166885 472.045319,153.936874 
	C501.177277,153.508514 530.318115,153.669846 559.455261,153.612778 
	C566.304382,153.599350 566.467224,153.660812 565.972351,160.403976 
	C564.273071,183.558182 557.561829,205.312683 547.382385,226.083740 
	C537.717957,245.803879 525.015015,263.421204 509.718964,279.065094 
	C495.251587,293.861511 478.896881,306.301575 460.730255,316.391754 
	C441.837341,326.885376 421.896881,334.496338 400.649994,338.125702 
	C387.776062,340.324829 374.649597,341.045532 361.279541,342.468414 
	C361.156403,340.187622 361.011169,338.745575 361.010620,337.303467 
	C360.997833,303.811890 361.051453,270.320129 360.926025,236.829010 
	C360.912811,233.301910 361.827148,231.581116 365.389435,230.497940 
	C377.116547,226.932190 388.889160,223.401291 400.329712,219.033173 
	C420.320068,211.400665 434.350067,197.008820 444.138824,178.255753 
	C445.594757,175.466522 446.776459,172.534149 448.210388,169.304504 
z"/>
<path fill="#E65100" opacity="1.000000" stroke="none" 
	d="
M265.788025,412.137878 
	C293.212616,429.561066 314.871704,452.280212 331.688995,479.443665 
	C348.031219,505.839844 357.257416,534.802734 359.940063,565.785889 
	C359.981842,566.268127 359.815063,566.768433 359.667023,567.817017 
	C356.668274,568.026550 353.575226,568.425598 350.481628,568.430481 
	C320.504364,568.477783 290.527039,568.466675 260.549713,568.455078 
	C248.972870,568.450562 247.133698,566.983398 243.009476,556.233826 
	C234.054291,532.892578 219.400696,514.443359 196.435303,503.501709 
	C185.125885,498.113434 173.167358,494.637299 160.661469,493.514282 
	C156.346542,493.126831 154.862732,491.705658 154.890259,487.150940 
	C155.094543,453.344421 155.001053,419.536102 155.001068,385.728333 
	C155.001068,384.251801 155.001068,382.775269 155.001068,380.486938 
	C195.405228,379.553802 231.938904,390.361694 265.788025,412.137878 
z"/>
<path fill="#ED6C02" opacity="1.000000" stroke="none" 
	d="
M205.576065,213.569565 
	C224.590881,200.975113 237.356903,184.152908 244.010742,162.657150 
	C246.680786,154.031311 247.505844,153.604645 256.325348,153.604095 
	C288.634369,153.602112 320.943420,153.596558 353.252441,153.610931 
	C359.582458,153.613739 359.672913,153.771744 359.149475,160.118088 
	C355.602295,203.127884 337.873199,239.891037 309.549957,271.850677 
	C285.157471,299.374847 255.571991,319.378601 220.716293,331.246918 
	C200.625412,338.087830 179.871552,341.506683 158.593063,341.366425 
	C157.620712,341.360016 156.649750,341.143585 155.349380,340.984833 
	C155.349380,304.136261 155.349380,267.409058 155.349380,229.981049 
	C172.727142,227.275009 190.010971,223.496689 205.576065,213.569565 
z"/>
</svg>