<svg xmlns="http://www.w3.org/2000/svg" width="1136" height="486" viewBox="0 0 1136 486" version="1.1"><path d="M 315 10.675 C 297.344 11.656, 272.171 15.200, 248.250 20.072 L 243 21.142 243 40.071 C 243 52.164, 243.365 59, 244.011 59 C 244.567 59, 250.116 57.456, 256.341 55.569 C 279.234 48.630, 303.680 45, 327.519 45 C 361.458 45, 378 52.210, 378 67.001 C 378 70.622, 378.641 70.474, 356.500 71.974 C 335.125 73.422, 301.961 77.359, 289.152 79.969 C 259.183 86.076, 238.696 97.733, 231.251 112.913 C 228.677 118.162, 228.511 119.316, 228.505 132 C 228.501 143.847, 228.772 146.090, 230.723 150.315 C 233.531 156.400, 244.026 166.967, 250.528 170.257 C 262.299 176.213, 277.794 179.131, 297.460 179.094 C 323.633 179.045, 352.237 173.008, 370.752 163.626 C 373.602 162.182, 376.398 161, 376.967 161 C 377.586 161, 378 164.006, 378 168.500 L 378 176 399.500 176 L 421 176 421 117.182 C 421 52.150, 421.044 52.663, 414.558 42.523 C 410.009 35.412, 399.776 26.490, 391.508 22.425 C 379.731 16.635, 362.079 12.566, 342 11.013 C 329.868 10.074, 326.572 10.033, 315 10.675 M 997 10.623 C 977.328 11.957, 953.602 15.316, 930.250 20.072 L 925 21.142 925 40.071 C 925 61.126, 924.586 60.116, 932.120 57.458 C 939.661 54.797, 958.993 50.115, 972 47.798 C 988.893 44.790, 1027.707 44.473, 1038 47.260 C 1049.108 50.266, 1055.172 53.861, 1057.750 58.967 C 1058.987 61.418, 1060 64.895, 1060 66.693 C 1060 70.672, 1060.869 70.458, 1038.500 71.974 C 1017.125 73.422, 983.961 77.359, 971.152 79.969 C 942.747 85.758, 922.133 96.993, 914.823 110.671 C 910.964 117.891, 909.671 124.917, 910.231 135.620 C 910.644 143.528, 911.215 145.994, 913.885 151.417 C 919.745 163.322, 930.917 171.305, 947.733 175.604 C 977.324 183.169, 1024.473 177.881, 1052.221 163.886 C 1055.368 162.299, 1058.406 161, 1058.971 161 C 1059.585 161, 1060 164.028, 1060 168.500 L 1060 176 1082 176 L 1104 176 1104 118.710 C 1104 57.755, 1103.846 55.498, 1099.031 46.060 C 1094.240 36.671, 1083.318 26.917, 1071.500 21.475 C 1063.577 17.828, 1047.391 13.611, 1035.500 12.097 C 1026.120 10.903, 1004.869 10.089, 997 10.623 M 16.686 13.647 C 16.309 14.025, 16 50.708, 16 95.167 L 16 176 38 176 L 60 176 60 143 C 60 117.247, 60.275 110.008, 61.250 110.036 C 61.938 110.056, 65.713 112.419, 69.640 115.286 C 73.567 118.154, 87.517 128.326, 100.640 137.891 C 113.763 147.456, 129.450 158.959, 135.500 163.452 C 141.550 167.945, 147.929 172.613, 149.675 173.825 C 152.803 175.997, 153.300 176.025, 184.128 175.764 L 215.407 175.500 200.096 164.500 C 191.676 158.450, 181.797 151.293, 178.143 148.596 C 169.484 142.203, 134.032 116.513, 117.621 104.740 C 110.538 99.658, 103.640 94.593, 102.292 93.484 L 99.842 91.468 112.171 82.535 C 129.019 70.329, 139.904 62.557, 164.500 45.174 C 199.621 20.353, 207.905 14.239, 207.273 13.606 C 206.939 13.273, 194.213 13, 178.992 13 L 151.318 13 142.909 18.823 C 138.284 22.025, 126.625 30.050, 117 36.654 C 107.375 43.259, 91.286 54.379, 81.246 61.365 C 71.207 68.350, 62.326 74.322, 61.511 74.634 C 60.225 75.128, 59.994 71.122, 59.765 44.351 L 59.500 13.500 38.436 13.231 C 26.851 13.083, 17.063 13.270, 16.686 13.647 M 535.500 14.053 C 505.274 15.941, 485.338 25.113, 478.130 40.446 C 472.664 52.074, 472.672 51.974, 472.245 116.250 L 471.848 176 493.910 176 L 515.972 176 516.236 143.750 L 516.500 111.500 577.750 111.242 L 639 110.985 639 94 L 639 77.015 577.750 76.758 L 516.500 76.500 516.706 69.162 C 516.976 59.558, 519.868 54.278, 526.719 50.875 L 531.500 48.500 588.250 48.204 L 645 47.908 645 30.454 L 645 13 596.250 13.152 C 569.438 13.235, 542.100 13.640, 535.500 14.053 M 683.499 15.230 C 683.197 16.479, 683.073 53.050, 683.225 96.500 L 683.500 175.500 705.236 175.769 L 726.972 176.039 727.236 143.769 L 727.500 111.500 743 111.643 C 767.188 111.866, 783.522 115.256, 800.217 123.518 C 810.108 128.413, 819.132 135.005, 824.487 141.246 C 829.724 147.349, 835.838 160.318, 837.336 168.500 L 838.617 175.500 860.940 175.769 L 883.263 176.039 882.572 169.932 C 881.030 156.306, 873.353 138.350, 864.077 126.677 C 857.323 118.179, 845.206 108.631, 834.110 103.063 C 826.866 99.429, 822.846 98.004, 809.750 94.428 C 806.587 93.565, 804 92.522, 804 92.112 C 804 91.701, 806.587 90.553, 809.750 89.561 C 833.781 82.021, 857.707 61.225, 866.257 40.443 C 869.802 31.828, 873.502 15.621, 872.349 13.756 C 872.092 13.340, 862.242 13, 850.460 13 L 829.038 13 828.512 15.750 C 827.216 22.521, 822.708 34.415, 819.611 39.232 C 805.740 60.811, 777.845 74.126, 741.408 76.561 C 725.457 77.627, 727.073 81.145, 726.764 44.687 L 726.500 13.500 705.274 13.230 L 684.048 12.960 683.499 15.230 M 352 103.126 C 319.967 105.477, 295.483 109.880, 283.500 115.443 C 275.675 119.075, 273.782 120.851, 272.082 126.149 C 268.130 138.467, 279.427 145, 304.680 145 C 327.135 145, 351.772 138.859, 369.104 128.941 L 378 123.850 378 112.925 L 378 102 370.750 102.141 C 366.762 102.218, 358.325 102.662, 352 103.126 M 1033.500 103.153 C 1002.764 105.379, 977.565 109.942, 965.087 115.541 C 957.886 118.773, 955.531 121.174, 954.035 126.809 C 951.746 135.433, 957.954 141.583, 971.500 144.112 C 980.085 145.715, 1005.355 144.587, 1016 142.125 C 1031.160 138.620, 1046.900 132.403, 1056.200 126.249 L 1060 123.734 1060 112.867 L 1060 102 1052.750 102.142 C 1048.763 102.220, 1040.100 102.675, 1033.500 103.153 M 95 301.589 C 73.140 304.187, 59.793 307.398, 50.646 312.261 C 42.538 316.572, 34.060 325.058, 30.428 332.500 C 27.708 338.073, 27.500 339.318, 27.500 350 C 27.500 360.866, 27.663 361.794, 30.452 366.829 C 39.579 383.307, 61.357 393.965, 102.500 402.089 C 136.568 408.817, 147.611 412.372, 152.506 418.190 C 158.414 425.211, 152.880 432.713, 138.853 436.696 C 133.499 438.216, 128.727 438.492, 108.500 438.447 C 86.378 438.399, 83.508 438.184, 71.826 435.707 C 59.394 433.071, 46.292 428.812, 34.626 423.616 C 31.395 422.177, 28.582 421, 28.376 421 C 28.169 421, 28 429.536, 28 439.968 L 28 458.936 36.250 461.439 C 63.084 469.582, 81.229 472.265, 109.500 472.267 C 135.296 472.269, 146.906 470.787, 162.830 465.459 C 175.296 461.287, 181.176 457.778, 187.738 450.592 C 195.353 442.254, 198.232 435.316, 198.773 424 C 199.331 412.339, 198.216 407.906, 192.697 399.840 C 181.976 384.174, 159.363 374.128, 114.483 365.093 C 88.440 359.851, 74.642 354.937, 71.977 349.957 C 67.534 341.654, 76.289 336.721, 98.500 335.012 C 121.472 333.244, 147.145 336.801, 170.980 345.054 C 177.316 347.247, 183.287 349.310, 184.250 349.638 C 185.875 350.191, 186 348.914, 186 331.771 L 186 313.308 178.750 311.235 C 170.838 308.973, 155.878 305.905, 141 303.493 C 131.730 301.990, 101.983 300.759, 95 301.589 M 326 301.584 C 309.374 303.498, 289.923 307.711, 281.715 311.177 C 274.129 314.380, 262.311 321.614, 256.091 326.862 C 245.366 335.912, 235.340 353.082, 232.532 367.208 C 230.773 376.057, 230.532 394.525, 232.054 403.903 C 234.318 417.859, 242.541 433.695, 252.733 443.727 C 266.451 457.231, 284.683 465.501, 310.980 470.148 C 324.649 472.564, 354.674 473.061, 367.500 471.083 C 386.127 468.211, 405.025 462.081, 415.424 455.538 C 440.115 440, 452.085 417.661, 452.155 386.986 C 452.183 374.773, 451.720 371.529, 448.305 360.007 C 445.257 349.723, 442.451 344.015, 437.144 337.301 C 422.418 318.671, 403.174 308.774, 371.124 303.347 C 362.754 301.930, 333.073 300.770, 326 301.584 M 605.500 302.422 C 584.309 305.607, 569.959 310.352, 550.413 320.639 C 543.765 324.137, 538.042 327, 537.697 327 C 537.351 327, 536.940 322.163, 536.784 316.250 L 536.500 305.500 515 305.500 L 493.500 305.500 493.244 386.750 L 492.988 468 514.994 468 L 537 468 537 416.860 C 537 369.353, 537.124 365.622, 538.750 364.329 C 562.512 345.428, 596.492 333.882, 619.198 336.993 C 628.912 338.324, 638.451 343.102, 642.171 348.500 C 648.343 357.455, 648.345 357.473, 648.739 415.250 L 649.098 468 670.549 468 L 692 468 692 409.136 C 692 373.280, 691.601 348.169, 690.979 344.891 C 688.406 331.320, 677.464 317.103, 664.254 310.167 C 650.165 302.768, 625.144 299.470, 605.500 302.422 M 1081.500 302.469 C 1064.063 305.240, 1053.018 309.887, 1034.035 322.439 C 1026.914 327.148, 1020.843 331, 1020.544 331 C 1020.245 331, 1020 325.141, 1020 317.980 L 1020 304.961 998.250 305.230 L 976.500 305.500 976.244 386.750 L 975.988 468 997.994 468 L 1020 468 1020 419.100 L 1020 370.201 1025.750 364.940 C 1040.313 351.618, 1054.125 343.556, 1070.518 338.811 C 1081.620 335.597, 1104.519 335.616, 1116.410 338.849 C 1120.760 340.032, 1124.698 341, 1125.160 341 C 1125.622 341, 1126 332.972, 1126 323.159 L 1126 305.318 1120.750 304.153 C 1106.304 300.948, 1094.310 300.433, 1081.500 302.469 M 812.500 303.124 C 791.709 304.715, 757.868 309.739, 748.750 312.588 C 747.164 313.083, 747 314.911, 747 332.067 C 747 342.480, 747.380 351, 747.843 351 C 748.307 351, 751.345 350.073, 754.593 348.940 C 762.736 346.101, 782.300 341.510, 795.500 339.341 C 811.177 336.764, 850.599 336.715, 860 339.260 C 871.108 342.266, 877.172 345.861, 879.750 350.967 C 880.987 353.418, 882 356.883, 882 358.667 C 882 362.448, 881.708 362.534, 865.500 363.505 C 853.648 364.215, 826.965 366.636, 815 368.087 C 782.299 372.052, 757.076 380.999, 744.466 393.108 C 736.854 400.418, 733.518 406.780, 731.930 417.016 C 729.224 434.456, 735.505 449.371, 749.657 459.108 C 755.383 463.047, 767.387 467.427, 777.951 469.431 C 788.654 471.462, 811.520 471.476, 825.966 469.461 C 839.471 467.577, 862.670 461.137, 872.785 456.464 C 876.908 454.559, 880.668 453, 881.141 453 C 881.613 453, 882 456.375, 882 460.500 L 882 468 903.500 468 L 925 468 925 410.636 C 925 376.015, 924.598 351.151, 923.985 347.921 C 922.373 339.419, 919.206 334.039, 911.080 326 C 896.750 311.821, 879.075 305.589, 845.868 303.007 C 831.901 301.921, 828.038 301.935, 812.500 303.124 M 320.734 337.517 C 310.296 339.493, 298.577 344.163, 292.566 348.742 C 286.549 353.324, 279.627 363.196, 277.475 370.263 C 275.187 377.779, 274.551 388.587, 275.927 396.583 C 279.308 416.236, 292.539 428.992, 316 435.217 C 323.392 437.179, 326.845 437.463, 342.500 437.397 C 362.899 437.312, 370.327 435.882, 382.672 429.665 C 400.039 420.919, 408 407.457, 408 386.834 C 408 361.924, 394.810 345.633, 369.144 338.841 C 358.850 336.117, 332.006 335.383, 320.734 337.517 M 860.500 394.689 C 834.487 396.397, 806.539 400.332, 795 403.912 C 787.348 406.286, 779.823 410.815, 777.409 414.499 C 775.113 418.003, 775.041 424.887, 777.265 428.281 C 781.523 434.782, 793.497 437.540, 813.927 436.727 C 835.135 435.883, 851.443 431.683, 870.069 422.268 L 881.500 416.491 881.783 405.245 L 882.066 394 873.783 394.180 C 869.227 394.279, 863.250 394.508, 860.500 394.689" stroke="none" fill="#fffcfc" fill-rule="evenodd"/><path d="" stroke="none" fill="#fcfcfc" fill-rule="evenodd"/></svg>