<svg version="1.1" id="Layer_1" xmlns="http://www.w3.org/2000/svg" xmlns:xlink="http://www.w3.org/1999/xlink" x="0px" y="0px"
	 width="100%" viewBox="0 0 1248 379" enable-background="new 0 0 1248 379" xml:space="preserve">
<path fill="#000000" opacity="1.000000" stroke="none" 
	d="
M999.000000,380.000000 
	C666.000061,380.000000 333.500122,380.000000 1.000134,380.000000 
	C1.000089,253.666748 1.000089,127.333496 1.000045,1.000185 
	C416.999847,1.000123 832.999695,1.000123 1248.999634,1.000062 
	C1248.999756,127.333153 1248.999756,253.666306 1248.999878,379.999725 
	C1165.833374,380.000000 1082.666626,380.000000 999.000000,380.000000 
M259.739502,355.903931 
	C261.342407,359.921722 263.072205,363.894653 264.513062,367.969757 
	C265.991913,372.152374 268.565369,373.764435 273.153870,373.733185 
	C301.137054,373.542419 329.122131,373.636200 357.106598,373.635132 
	C360.232849,373.635010 363.359100,373.635101 367.431854,373.635101 
	C366.461975,366.202515 366.048462,359.165710 364.556641,352.365448 
	C360.879425,335.603271 355.381134,319.497101 347.041779,304.337158 
	C338.816772,289.385010 329.062927,275.472321 317.381317,263.259277 
	C304.720337,250.022308 290.148346,238.898651 273.936035,229.912643 
	C247.723129,215.383606 219.962891,207.326035 189.909546,207.209686 
	C185.584106,207.192963 184.214279,208.277054 184.244888,212.770340 
	C184.444702,242.086029 184.345688,271.403748 184.349167,300.720795 
	C184.349899,306.957855 184.786301,307.311401 191.065872,307.851318 
	C204.070480,308.969574 216.133591,313.125641 227.480682,319.465302 
	C242.236023,327.709259 252.173370,340.260376 259.739502,355.903931 
M130.499939,373.633148 
	C148.527359,373.633148 166.554779,373.633148 184.743164,373.633148 
	C180.851257,325.609406 160.770676,286.701324 126.529770,255.041870 
	C91.857635,222.983658 50.931580,206.686493 3.383210,207.176437 
	C3.383210,240.905884 3.383210,273.690857 3.383210,306.706146 
	C5.493461,307.090393 7.462110,307.317841 9.359445,307.816559 
	C18.617292,310.250214 28.221745,311.851746 37.030605,315.412476 
	C60.112457,324.742828 73.591682,343.160767 82.045761,365.821167 
	C84.459290,372.290375 86.521652,373.733826 93.511391,373.723755 
	C105.507591,373.706451 117.503746,373.664398 130.499939,373.633148 
M300.426971,132.884155 
	C320.894958,116.697830 336.846710,96.776817 348.742920,73.649200 
	C358.226654,55.211723 364.267334,35.685467 365.979065,14.908050 
	C366.608551,7.266929 366.759888,7.274444 358.862091,7.278440 
	C331.043182,7.292515 303.224213,7.296979 275.405334,7.335957 
	C268.376526,7.345805 266.386230,8.822767 264.113007,15.372327 
	C255.782211,39.375004 241.051117,57.500065 216.592560,66.398308 
	C207.114700,69.846436 197.373886,72.568169 187.857941,75.919167 
	C186.525833,76.388260 184.929184,78.560928 184.915894,79.958908 
	C184.632431,109.773849 184.608643,139.591171 184.377060,169.406799 
	C184.348969,173.023514 185.646042,174.117554 189.048645,173.798660 
	C196.806519,173.071579 204.629379,172.870193 212.338013,171.814209 
	C245.147110,167.319717 274.237213,154.215546 300.426971,132.884155 
M67.875565,162.256577 
	C137.136734,136.549225 184.242706,65.873581 183.466629,7.191594 
	C181.377411,7.191594 179.256485,7.191607 177.135544,7.191593 
	C150.649078,7.191412 124.162109,7.095681 97.676353,7.232489 
	C84.971649,7.298113 85.603333,4.455493 80.003242,19.889263 
	C72.115028,41.629066 57.554066,57.733292 35.827965,66.214195 
	C25.442183,70.268349 14.348038,72.507835 3.251159,75.661194 
	C3.251159,107.693298 3.251159,140.428177 3.251159,173.680725 
	C25.423283,173.822433 46.643131,170.274979 67.875565,162.256577 
M847.001038,275.501526 
	C832.312866,253.163010 817.643372,230.812164 802.881592,208.522400 
	C802.146606,207.412552 800.622620,206.134338 799.446533,206.114960 
	C788.358215,205.932220 777.265686,206.006332 766.292603,206.006332 
	C766.292603,263.336761 766.292603,320.064819 766.292603,376.706207 
	C777.991699,376.706207 789.396118,376.706207 801.201660,376.706207 
	C801.201660,338.430969 801.201660,300.448059 801.201660,261.397064 
	C808.300110,272.466217 814.668030,282.672943 821.308960,292.698822 
	C839.466187,320.110870 857.724670,347.455933 876.019287,374.776550 
	C876.697693,375.789795 878.162231,376.887329 879.275757,376.903809 
	C890.056641,377.063202 900.840820,376.999451 911.805420,376.999451 
	C911.805420,319.859863 911.805420,263.132111 911.805420,206.202209 
	C900.208008,206.202209 888.805054,206.202209 876.790894,206.202209 
	C876.790894,244.134079 876.790894,281.880829 876.790894,320.987671 
	C866.498840,305.173126 857.014404,290.599457 847.001038,275.501526 
M741.039368,298.781952 
	C741.359558,297.198639 742.055603,295.585968 741.934509,294.037170 
	C741.425964,287.531494 740.893127,281.013458 739.968689,274.557251 
	C737.107849,254.578537 727.896973,238.177307 712.569092,224.900772 
	C701.026184,214.902634 687.995483,208.866791 673.079346,205.826370 
	C659.455688,203.049423 645.911865,203.047958 632.681213,206.296356 
	C605.531616,212.962158 585.483826,229.262573 574.224731,254.869659 
	C566.197388,273.126709 564.596313,292.789978 569.251160,312.212250 
	C575.360840,337.704651 590.502563,356.811920 613.886230,368.938293 
	C629.007568,376.779938 645.383972,379.351074 662.175842,377.827820 
	C670.777283,377.047546 679.683777,375.640167 687.623352,372.451721 
	C700.863831,367.134521 712.639465,359.273010 721.866028,347.798492 
	C733.257202,333.632019 740.262573,317.983582 741.039368,298.781952 
M1182.997559,5.395141 
	C1181.634277,4.596807 1180.280762,3.125433 1178.906006,3.105319 
	C1166.584106,2.925033 1154.256592,2.907236 1141.936157,3.133632 
	C1140.599976,3.158186 1138.600220,4.759296 1138.087280,6.085307 
	C1132.597778,20.272152 1127.208740,34.501522 1122.056274,48.814289 
	C1109.424438,83.903625 1096.922485,119.039658 1084.389893,154.164612 
	C1080.993896,163.682663 1077.674683,173.228165 1074.236206,182.999908 
	C1086.466675,182.999908 1098.123779,182.971558 1109.780396,183.023392 
	C1112.167236,183.033997 1113.327393,182.594162 1114.200073,179.784607 
	C1117.096924,170.458664 1120.586914,161.311584 1124.061768,152.176636 
	C1124.552002,150.888046 1126.214600,149.143051 1127.346558,149.134186 
	C1150.144165,148.955643 1172.943481,149.000580 1195.569458,149.000580 
	C1199.223389,159.799942 1202.705322,170.284027 1206.396851,180.693695 
	C1206.753052,181.698364 1208.401611,182.887054 1209.464111,182.900665 
	C1221.587646,183.055908 1233.713745,182.999359 1246.046875,182.999359 
	C1245.878540,181.781540 1245.901489,180.935776 1245.637939,180.191513 
	C1241.951172,169.785568 1238.267944,159.378052 1234.500732,149.001022 
	C1223.029785,117.403252 1211.479736,85.834137 1200.048462,54.222099 
	C1194.277710,38.263412 1188.696777,22.236099 1182.997559,5.395141 
M713.967285,67.736481 
	C713.419678,66.741905 712.724304,65.800247 712.346375,64.744896 
	C705.544861,45.752888 698.667114,26.786535 692.112854,7.709155 
	C690.888489,4.145434 689.388855,2.798929 685.562622,2.907227 
	C675.742981,3.185165 665.910278,3.000058 656.082764,3.000057 
	C647.784607,3.000057 647.780518,2.998424 644.714783,10.691011 
	C643.588318,13.517435 642.420715,16.329796 641.383362,19.189018 
	C629.589661,51.696255 617.802185,84.205757 606.045959,116.726555 
	C600.005066,133.437378 593.993591,150.159134 588.047058,166.903717 
	C586.204102,172.093124 584.618042,177.373795 582.839905,182.841522 
	C596.203918,182.841522 608.999634,182.841522 621.692261,182.841522 
	C625.610229,171.485596 629.468140,160.303802 633.368164,148.999969 
	C655.183716,148.999969 676.830200,149.177628 698.469482,148.862137 
	C703.258728,148.792297 704.836731,150.774796 706.083130,154.774567 
	C709.023926,164.211853 712.334473,173.533936 715.429077,182.705811 
	C728.720642,182.705811 741.773987,182.705811 754.900452,182.705811 
	C741.198792,144.462479 727.599609,106.505096 713.967285,67.736481 
M423.000000,55.500000 
	C423.000000,97.919601 423.000000,140.339203 423.000000,182.724533 
	C435.622009,182.724533 447.691986,182.724533 460.161621,182.724533 
	C460.161621,156.776550 460.161621,131.101578 460.161621,104.977898 
	C462.699768,107.841141 464.931152,110.170876 466.952423,112.670540 
	C476.259064,124.180206 485.487457,135.753113 494.782013,147.272644 
	C503.268158,157.790192 511.791595,168.277679 520.324463,178.757355 
	C522.563293,181.506943 524.951477,183.268738 529.073792,183.140472 
	C541.557800,182.751999 554.061584,183.006882 566.557678,182.990143 
	C567.923523,182.988312 569.289246,182.850418 571.162354,182.747879 
	C545.508545,152.304901 520.293274,122.382408 495.117401,92.506584 
	C519.805298,62.793926 544.362549,33.238522 569.486938,3.000515 
	C554.385925,3.000515 540.288940,2.935923 526.194763,3.103729 
	C524.835022,3.119919 523.126709,4.279435 522.199280,5.414184 
	C514.068237,15.362504 506.071960,25.421011 498.047791,35.456497 
	C490.331879,45.106461 482.682800,54.810429 474.902985,64.408493 
	C470.168304,70.249695 465.241699,75.935310 459.763794,82.448906 
	C459.763794,55.359119 459.763794,29.284008 459.763794,3.290245 
	C447.347961,3.290245 435.277618,3.290245 423.000000,3.290245 
	C423.000000,20.553047 423.000000,37.526524 423.000000,55.500000 
M1035.500610,3.000058 
	C1031.002197,3.000058 1026.441650,3.466147 1022.021423,2.878216 
	C1016.874573,2.193649 1013.975037,5.003213 1011.251526,8.370016 
	C1003.376892,18.104450 995.596436,27.915154 987.793396,37.707436 
	C980.093323,47.370564 972.469788,57.095428 964.696167,66.698944 
	C960.787659,71.527512 956.620667,76.146851 951.704834,81.868416 
	C951.704834,54.636078 951.704834,28.890753 951.704834,3.321486 
	C939.284363,3.321486 927.213196,3.321486 915.305298,3.321486 
	C915.305298,63.368370 915.305298,123.093437 915.305298,182.694443 
	C927.683289,182.694443 939.753967,182.694443 952.237305,182.694443 
	C952.237305,157.051147 952.237305,131.711411 952.237305,105.576401 
	C958.259155,112.726601 963.778931,119.147018 969.153015,125.687103 
	C984.257874,144.069458 999.269104,162.529007 1014.448914,180.849014 
	C1015.434509,182.038437 1017.527466,182.888702 1019.117249,182.907990 
	C1032.444336,183.069672 1045.774170,183.007233 1059.103149,182.987656 
	C1060.305298,182.985886 1061.507324,182.810822 1062.798584,182.709213 
	C1056.057007,174.797394 1049.578125,167.206421 1043.113159,159.603607 
	C1035.486328,150.634628 1027.835938,141.685471 1020.260559,132.673172 
	C1010.177979,120.678116 1000.300232,108.506798 990.019226,96.685356 
	C987.175415,93.415436 987.134644,91.525948 990.032288,88.307228 
	C997.795166,79.683899 1005.204773,70.737854 1012.629272,61.815636 
	C1023.580017,48.655716 1034.431274,35.412804 1045.306641,22.190296 
	C1050.314453,16.101679 1055.279419,9.977747 1060.973633,3.000058 
	C1052.015381,3.000058 1044.257812,3.000058 1035.500610,3.000058 
M1180.468018,206.000031 
	C1160.046875,206.000031 1139.625732,206.000031 1119.272705,206.000031 
	C1119.272705,263.307007 1119.272705,320.029999 1119.272705,376.727478 
	C1130.950439,376.727478 1142.353271,376.727478 1154.142578,376.727478 
	C1154.142578,354.721588 1154.142578,332.985443 1154.142578,311.000000 
	C1158.003296,311.000000 1161.481812,311.130432 1164.945312,310.958160 
	C1167.650391,310.823608 1169.387329,311.427673 1170.786133,314.138428 
	C1174.099121,320.557983 1177.948364,326.698425 1181.488037,333.003662 
	C1189.036865,346.450043 1196.478516,359.956909 1204.108765,373.356537 
	C1204.956055,374.844482 1206.720459,376.811646 1208.096313,376.841095 
	C1220.671753,377.110138 1233.255249,376.999237 1247.090454,376.999237 
	C1233.160278,353.337036 1219.785278,330.617981 1206.399902,307.881195 
	C1207.399170,307.335541 1207.663086,307.131348 1207.961792,307.037018 
	C1219.877075,303.273315 1229.694824,297.050629 1236.665527,286.088715 
	C1243.073608,276.011475 1244.675049,265.294128 1243.965210,253.903900 
	C1242.899536,236.808838 1234.919434,223.827972 1220.193359,215.011871 
	C1208.239868,207.855698 1195.035889,206.131485 1180.468018,206.000031 
M1053.967529,255.738358 
	C1053.333130,254.601974 1052.519165,253.529022 1052.091553,252.319519 
	C1047.024536,237.983170 1041.950073,223.648651 1037.050049,209.254883 
	C1036.153564,206.621140 1034.837402,205.891739 1032.138062,205.931381 
	C1020.982666,206.095184 1009.822266,206.088074 998.666504,205.937637 
	C995.906616,205.900421 994.785095,206.807281 993.910156,209.440338 
	C991.538696,216.577164 988.636230,223.535278 986.118835,230.626221 
	C974.659790,262.903442 963.315247,295.221466 951.817139,327.484772 
	C945.971313,343.888092 939.887939,360.206787 933.752808,376.999237 
	C945.701782,376.999237 957.168701,377.091248 968.628906,376.856293 
	C969.770142,376.832886 971.419739,375.018127 971.901245,373.695404 
	C975.078430,364.967621 977.897766,356.109131 981.109802,347.395020 
	C981.623535,346.001404 983.514893,344.155609 984.784668,344.143646 
	C1006.084656,343.942688 1027.387085,344.000122 1048.592651,344.000122 
	C1051.450073,352.130981 1054.285034,359.959198 1056.950562,367.844635 
	C1060.038086,376.978180 1059.973511,377.000000 1069.247559,377.000000 
	C1078.454468,377.000000 1087.661255,377.000000 1097.143433,377.000000 
	C1082.593750,336.378967 1068.297119,296.464111 1053.967529,255.738358 
M543.579895,243.061783 
	C540.076477,227.776794 530.836304,216.805496 516.849915,210.537369 
	C496.195526,201.280975 474.761230,201.247131 453.769135,209.227646 
	C439.980774,214.469513 429.881989,224.161758 425.500824,238.915710 
	C423.195923,246.677719 423.120667,254.640671 424.175385,262.408691 
	C425.556396,272.579742 430.439880,280.965485 438.839874,287.575439 
	C447.452728,294.352844 457.487823,297.451355 467.455383,301.005402 
	C478.443268,304.923370 489.784607,308.105042 500.292755,313.050568 
	C514.179871,319.586365 513.720642,337.223999 501.918030,345.111023 
	C495.710907,349.258881 489.137878,349.005493 482.269226,349.083679 
	C471.479462,349.206482 462.302856,340.667175 460.874023,330.275635 
	C460.707306,329.063049 458.841034,327.165405 457.731171,327.142975 
	C446.278931,326.911591 434.820251,327.000885 423.307739,327.000885 
	C423.164246,327.821838 422.996216,328.283447 423.016876,328.736481 
	C424.038971,351.164612 437.326385,367.553925 461.300385,374.735504 
	C479.172760,380.089325 497.690247,380.250336 515.433411,372.939575 
	C528.478027,367.564728 538.424927,358.844299 543.466797,345.143097 
	C546.927979,335.737518 548.132202,326.188141 545.915283,316.434296 
	C544.378296,309.671814 541.681396,303.500061 536.797363,298.103729 
	C526.332458,286.541168 512.213318,282.435272 498.197937,278.054138 
	C487.824768,274.811493 477.196625,272.408936 468.034790,266.050995 
	C461.911285,261.801514 458.800446,256.268494 460.070312,248.892838 
	C461.256531,242.002960 464.570679,236.310211 471.953705,234.629105 
	C476.356110,233.626694 481.012848,232.817245 485.463623,233.149261 
	C494.020447,233.787567 504.145966,239.354111 506.106628,249.967392 
	C506.318909,251.116562 507.982574,252.850983 508.997589,252.868240 
	C520.949280,253.071564 532.905579,252.998856 545.183716,252.998856 
	C544.734436,249.604416 544.352600,246.719452 543.579895,243.061783 
M844.500000,32.999947 
	C859.594666,32.999947 874.689270,32.999947 889.712830,32.999947 
	C889.712830,22.688786 889.712830,12.950656 889.712830,3.282272 
	C852.359131,3.282272 815.293274,3.282272 778.271606,3.282272 
	C778.271606,63.293453 778.271606,123.022018 778.271606,182.726959 
	C790.615784,182.726959 802.686279,182.726959 815.147217,182.726959 
	C815.147217,157.386261 815.147217,132.315964 815.147217,106.854980 
	C834.610840,106.854980 853.682983,106.854980 872.999939,106.854980 
	C872.999939,98.489120 872.860657,90.513512 873.064270,82.546654 
	C873.153320,79.065453 872.023010,77.891060 868.494019,77.932961 
	C854.665894,78.097115 840.834717,78.000053 827.004639,78.000046 
	C823.068481,78.000038 819.132385,78.000046 815.286865,78.000046 
	C815.286865,62.688835 815.286865,47.951916 815.286865,32.999947 
	C824.881470,32.999947 834.190735,32.999947 844.500000,32.999947 
z"/>
<path fill="#E45000" opacity="1.000000" stroke="none" 
	d="
M259.554626,355.575806 
	C252.173370,340.260376 242.236023,327.709259 227.480682,319.465302 
	C216.133591,313.125641 204.070480,308.969574 191.065872,307.851318 
	C184.786301,307.311401 184.349899,306.957855 184.349167,300.720795 
	C184.345688,271.403748 184.444702,242.086029 184.244888,212.770340 
	C184.214279,208.277054 185.584106,207.192963 189.909546,207.209686 
	C219.962891,207.326035 247.723129,215.383606 273.936035,229.912643 
	C290.148346,238.898651 304.720337,250.022308 317.381317,263.259277 
	C329.062927,275.472321 338.816772,289.385010 347.041779,304.337158 
	C355.381134,319.497101 360.879425,335.603271 364.556641,352.365448 
	C366.048462,359.165710 366.461975,366.202515 367.431854,373.635101 
	C363.359100,373.635101 360.232849,373.635010 357.106598,373.635132 
	C329.122131,373.636200 301.137054,373.542419 273.153870,373.733185 
	C268.565369,373.764435 265.991913,372.152374 264.513062,367.969757 
	C263.072205,363.894653 261.342407,359.921722 259.554626,355.575806 
z"/>
<path fill="#E45000" opacity="1.000000" stroke="none" 
	d="
M129.999939,373.632935 
	C117.503746,373.664398 105.507591,373.706451 93.511391,373.723755 
	C86.521652,373.733826 84.459290,372.290375 82.045761,365.821167 
	C73.591682,343.160767 60.112457,324.742828 37.030605,315.412476 
	C28.221745,311.851746 18.617292,310.250214 9.359445,307.816559 
	C7.462110,307.317841 5.493461,307.090393 3.383210,306.706146 
	C3.383210,273.690857 3.383210,240.905884 3.383210,207.176437 
	C50.931580,206.686493 91.857635,222.983658 126.529770,255.041870 
	C160.770676,286.701324 180.851257,325.609406 184.743164,373.633148 
	C166.554779,373.633148 148.527359,373.633148 129.999939,373.632935 
z"/>
<path fill="#EB6B02" opacity="1.000000" stroke="none" 
	d="
M300.155121,133.114990 
	C274.237213,154.215546 245.147110,167.319717 212.338013,171.814209 
	C204.629379,172.870193 196.806519,173.071579 189.048645,173.798660 
	C185.646042,174.117554 184.348969,173.023514 184.377060,169.406799 
	C184.608643,139.591171 184.632431,109.773849 184.915894,79.958908 
	C184.929184,78.560928 186.525833,76.388260 187.857941,75.919167 
	C197.373886,72.568169 207.114700,69.846436 216.592560,66.398308 
	C241.051117,57.500065 255.782211,39.375004 264.113007,15.372327 
	C266.386230,8.822767 268.376526,7.345805 275.405334,7.335957 
	C303.224213,7.296979 331.043182,7.292515 358.862091,7.278440 
	C366.759888,7.274444 366.608551,7.266929 365.979065,14.908050 
	C364.267334,35.685467 358.226654,55.211723 348.742920,73.649200 
	C336.846710,96.776817 320.894958,116.697830 300.155121,133.114990 
z"/>
<path fill="#EB6B02" opacity="1.000000" stroke="none" 
	d="
M67.527435,162.430481 
	C46.643131,170.274979 25.423283,173.822433 3.251159,173.680725 
	C3.251159,140.428177 3.251159,107.693298 3.251159,75.661194 
	C14.348038,72.507835 25.442183,70.268349 35.827965,66.214195 
	C57.554066,57.733292 72.115028,41.629066 80.003242,19.889263 
	C85.603333,4.455493 84.971649,7.298113 97.676353,7.232489 
	C124.162109,7.095681 150.649078,7.191412 177.135544,7.191593 
	C179.256485,7.191607 181.377411,7.191594 183.466629,7.191594 
	C184.242706,65.873581 137.136734,136.549225 67.527435,162.430481 
z"/>
<path fill="#FFFFFF" opacity="1.000000" stroke="none" 
	d="
M847.265503,275.763672 
	C857.014404,290.599457 866.498840,305.173126 876.790894,320.987671 
	C876.790894,281.880829 876.790894,244.134079 876.790894,206.202209 
	C888.805054,206.202209 900.208008,206.202209 911.805420,206.202209 
	C911.805420,263.132111 911.805420,319.859863 911.805420,376.999451 
	C900.840820,376.999451 890.056641,377.063202 879.275757,376.903809 
	C878.162231,376.887329 876.697693,375.789795 876.019287,374.776550 
	C857.724670,347.455933 839.466187,320.110870 821.308960,292.698822 
	C814.668030,282.672943 808.300110,272.466217 801.201660,261.397064 
	C801.201660,300.448059 801.201660,338.430969 801.201660,376.706207 
	C789.396118,376.706207 777.991699,376.706207 766.292603,376.706207 
	C766.292603,320.064819 766.292603,263.336761 766.292603,206.006332 
	C777.265686,206.006332 788.358215,205.932220 799.446533,206.114960 
	C800.622620,206.134338 802.146606,207.412552 802.881592,208.522400 
	C817.643372,230.812164 832.312866,253.163010 847.265503,275.763672 
z"/>
<path fill="#FFFFFF" opacity="1.000000" stroke="none" 
	d="
M741.021118,299.244781 
	C740.262573,317.983582 733.257202,333.632019 721.866028,347.798492 
	C712.639465,359.273010 700.863831,367.134521 687.623352,372.451721 
	C679.683777,375.640167 670.777283,377.047546 662.175842,377.827820 
	C645.383972,379.351074 629.007568,376.779938 613.886230,368.938293 
	C590.502563,356.811920 575.360840,337.704651 569.251160,312.212250 
	C564.596313,292.789978 566.197388,273.126709 574.224731,254.869659 
	C585.483826,229.262573 605.531616,212.962158 632.681213,206.296356 
	C645.911865,203.047958 659.455688,203.049423 673.079346,205.826370 
	C687.995483,208.866791 701.026184,214.902634 712.569092,224.900772 
	C727.896973,238.177307 737.107849,254.578537 739.968689,274.557251 
	C740.893127,281.013458 741.425964,287.531494 741.934509,294.037170 
	C742.055603,295.585968 741.359558,297.198639 741.021118,299.244781 
M702.640442,312.884766 
	C704.763184,302.359589 706.955200,291.958374 705.128357,280.991119 
	C702.973267,268.053986 698.413879,256.750275 688.471619,247.738022 
	C680.445862,240.463058 671.121033,237.430450 660.587830,235.749191 
	C650.430359,234.127930 640.901367,236.083099 632.157227,239.742477 
	C618.714172,245.368301 610.335022,256.616608 606.088928,270.495483 
	C603.067322,280.371613 602.279541,290.453247 603.837219,300.902405 
	C605.580688,312.597412 609.355225,323.328796 617.464417,331.757019 
	C632.800110,347.696075 651.792297,350.507721 672.217773,344.185577 
	C687.478943,339.461914 697.071045,328.532135 702.640442,312.884766 
z"/>
<path fill="#FFFFFF" opacity="1.000000" stroke="none" 
	d="
M1183.013916,5.817472 
	C1188.696777,22.236099 1194.277710,38.263412 1200.048462,54.222099 
	C1211.479736,85.834137 1223.029785,117.403252 1234.500732,149.001022 
	C1238.267944,159.378052 1241.951172,169.785568 1245.637939,180.191513 
	C1245.901489,180.935776 1245.878540,181.781540 1246.046875,182.999359 
	C1233.713745,182.999359 1221.587646,183.055908 1209.464111,182.900665 
	C1208.401611,182.887054 1206.753052,181.698364 1206.396851,180.693695 
	C1202.705322,170.284027 1199.223389,159.799942 1195.569458,149.000580 
	C1172.943481,149.000580 1150.144165,148.955643 1127.346558,149.134186 
	C1126.214600,149.143051 1124.552002,150.888046 1124.061768,152.176636 
	C1120.586914,161.311584 1117.096924,170.458664 1114.200073,179.784607 
	C1113.327393,182.594162 1112.167236,183.033997 1109.780396,183.023392 
	C1098.123779,182.971558 1086.466675,182.999908 1074.236206,182.999908 
	C1077.674683,173.228165 1080.993896,163.682663 1084.389893,154.164612 
	C1096.922485,119.039658 1109.424438,83.903625 1122.056274,48.814289 
	C1127.208740,34.501522 1132.597778,20.272152 1138.087280,6.085307 
	C1138.600220,4.759296 1140.599976,3.158186 1141.936157,3.133632 
	C1154.256592,2.907236 1166.584106,2.925033 1178.906006,3.105319 
	C1180.280762,3.125433 1181.634277,4.596807 1183.013916,5.817472 
M1163.510376,56.007526 
	C1162.540161,53.155193 1161.570068,50.302856 1160.244629,46.406204 
	C1151.603516,71.444771 1143.312378,95.469543 1134.925781,119.770569 
	C1151.752563,119.770569 1168.299438,119.770569 1185.281372,119.770569 
	C1184.338379,116.704399 1183.567627,113.941406 1182.642456,111.231087 
	C1176.434448,93.044579 1170.193848,74.869247 1163.510376,56.007526 
z"/>
<path fill="#FFFFFF" opacity="1.000000" stroke="none" 
	d="
M713.983887,68.142097 
	C727.599609,106.505096 741.198792,144.462479 754.900452,182.705811 
	C741.773987,182.705811 728.720642,182.705811 715.429077,182.705811 
	C712.334473,173.533936 709.023926,164.211853 706.083130,154.774567 
	C704.836731,150.774796 703.258728,148.792297 698.469482,148.862137 
	C676.830200,149.177628 655.183716,148.999969 633.368164,148.999969 
	C629.468140,160.303802 625.610229,171.485596 621.692261,182.841522 
	C608.999634,182.841522 596.203918,182.841522 582.839905,182.841522 
	C584.618042,177.373795 586.204102,172.093124 588.047058,166.903717 
	C593.993591,150.159134 600.005066,133.437378 606.045959,116.726555 
	C617.802185,84.205757 629.589661,51.696255 641.383362,19.189018 
	C642.420715,16.329796 643.588318,13.517435 644.714783,10.691011 
	C647.780518,2.998424 647.784607,3.000057 656.082764,3.000057 
	C665.910278,3.000058 675.742981,3.185165 685.562622,2.907227 
	C689.388855,2.798929 690.888489,4.145434 692.112854,7.709155 
	C698.667114,26.786535 705.544861,45.752888 712.346375,64.744896 
	C712.724304,65.800247 713.419678,66.741905 713.983887,68.142097 
M653.480591,90.014160 
	C650.131958,99.954857 646.783264,109.895554 643.483215,119.691986 
	C660.394348,119.691986 677.114624,119.691986 693.953064,119.691986 
	C685.517090,95.367653 677.189758,71.356514 668.604492,46.601780 
	C663.504456,61.491512 658.732422,75.423752 653.480591,90.014160 
z"/>
<path fill="#FFFFFF" opacity="1.000000" stroke="none" 
	d="
M423.000000,55.000000 
	C423.000000,37.526524 423.000000,20.553047 423.000000,3.290245 
	C435.277618,3.290245 447.347961,3.290245 459.763794,3.290245 
	C459.763794,29.284008 459.763794,55.359119 459.763794,82.448906 
	C465.241699,75.935310 470.168304,70.249695 474.902985,64.408493 
	C482.682800,54.810429 490.331879,45.106461 498.047791,35.456497 
	C506.071960,25.421011 514.068237,15.362504 522.199280,5.414184 
	C523.126709,4.279435 524.835022,3.119919 526.194763,3.103729 
	C540.288940,2.935923 554.385925,3.000515 569.486938,3.000515 
	C544.362549,33.238522 519.805298,62.793926 495.117401,92.506584 
	C520.293274,122.382408 545.508545,152.304901 571.162354,182.747879 
	C569.289246,182.850418 567.923523,182.988312 566.557678,182.990143 
	C554.061584,183.006882 541.557800,182.751999 529.073792,183.140472 
	C524.951477,183.268738 522.563293,181.506943 520.324463,178.757355 
	C511.791595,168.277679 503.268158,157.790192 494.782013,147.272644 
	C485.487457,135.753113 476.259064,124.180206 466.952423,112.670540 
	C464.931152,110.170876 462.699768,107.841141 460.161621,104.977898 
	C460.161621,131.101578 460.161621,156.776550 460.161621,182.724533 
	C447.691986,182.724533 435.622009,182.724533 423.000000,182.724533 
	C423.000000,140.339203 423.000000,97.919601 423.000000,55.000000 
z"/>
<path fill="#FFFFFF" opacity="1.000000" stroke="none" 
	d="
M1036.000488,3.000058 
	C1044.257812,3.000058 1052.015381,3.000058 1060.973633,3.000058 
	C1055.279419,9.977747 1050.314453,16.101679 1045.306641,22.190296 
	C1034.431274,35.412804 1023.580017,48.655716 1012.629272,61.815636 
	C1005.204773,70.737854 997.795166,79.683899 990.032288,88.307228 
	C987.134644,91.525948 987.175415,93.415436 990.019226,96.685356 
	C1000.300232,108.506798 1010.177979,120.678116 1020.260559,132.673172 
	C1027.835938,141.685471 1035.486328,150.634628 1043.113159,159.603607 
	C1049.578125,167.206421 1056.057007,174.797394 1062.798584,182.709213 
	C1061.507324,182.810822 1060.305298,182.985886 1059.103149,182.987656 
	C1045.774170,183.007233 1032.444336,183.069672 1019.117249,182.907990 
	C1017.527466,182.888702 1015.434509,182.038437 1014.448914,180.849014 
	C999.269104,162.529007 984.257874,144.069458 969.153015,125.687103 
	C963.778931,119.147018 958.259155,112.726601 952.237305,105.576401 
	C952.237305,131.711411 952.237305,157.051147 952.237305,182.694443 
	C939.753967,182.694443 927.683289,182.694443 915.305298,182.694443 
	C915.305298,123.093437 915.305298,63.368370 915.305298,3.321486 
	C927.213196,3.321486 939.284363,3.321486 951.704834,3.321486 
	C951.704834,28.890753 951.704834,54.636078 951.704834,81.868416 
	C956.620667,76.146851 960.787659,71.527512 964.696167,66.698944 
	C972.469788,57.095428 980.093323,47.370564 987.793396,37.707436 
	C995.596436,27.915154 1003.376892,18.104450 1011.251526,8.370016 
	C1013.975037,5.003213 1016.874573,2.193649 1022.021423,2.878216 
	C1026.441650,3.466147 1031.002197,3.000058 1036.000488,3.000058 
z"/>
<path fill="#FFFFFF" opacity="1.000000" stroke="none" 
	d="
M1180.961548,206.000031 
	C1195.035889,206.131485 1208.239868,207.855698 1220.193359,215.011871 
	C1234.919434,223.827972 1242.899536,236.808838 1243.965210,253.903900 
	C1244.675049,265.294128 1243.073608,276.011475 1236.665527,286.088715 
	C1229.694824,297.050629 1219.877075,303.273315 1207.961792,307.037018 
	C1207.663086,307.131348 1207.399170,307.335541 1206.399902,307.881195 
	C1219.785278,330.617981 1233.160278,353.337036 1247.090454,376.999237 
	C1233.255249,376.999237 1220.671753,377.110138 1208.096313,376.841095 
	C1206.720459,376.811646 1204.956055,374.844482 1204.108765,373.356537 
	C1196.478516,359.956909 1189.036865,346.450043 1181.488037,333.003662 
	C1177.948364,326.698425 1174.099121,320.557983 1170.786133,314.138428 
	C1169.387329,311.427673 1167.650391,310.823608 1164.945312,310.958160 
	C1161.481812,311.130432 1158.003296,311.000000 1154.142578,311.000000 
	C1154.142578,332.985443 1154.142578,354.721588 1154.142578,376.727478 
	C1142.353271,376.727478 1130.950439,376.727478 1119.272705,376.727478 
	C1119.272705,320.029999 1119.272705,263.307007 1119.272705,206.000031 
	C1139.625732,206.000031 1160.046875,206.000031 1180.961548,206.000031 
M1205.595459,247.076096 
	C1203.022583,241.637512 1198.723389,237.746307 1192.910156,237.107269 
	C1180.101685,235.699341 1167.206299,235.084595 1154.232422,234.137848 
	C1154.232422,251.576630 1154.232422,267.625000 1154.232422,283.999054 
	C1165.236328,283.999054 1176.024658,284.310455 1186.778076,283.832306 
	C1190.607178,283.662048 1194.568115,282.016571 1198.092041,280.279968 
	C1207.749390,275.520966 1211.447266,258.242950 1205.595459,247.076096 
z"/>
<path fill="#FFFFFF" opacity="1.000000" stroke="none" 
	d="
M1053.984009,256.143829 
	C1068.297119,296.464111 1082.593750,336.378967 1097.143433,377.000000 
	C1087.661255,377.000000 1078.454468,377.000000 1069.247559,377.000000 
	C1059.973511,377.000000 1060.038086,376.978180 1056.950562,367.844635 
	C1054.285034,359.959198 1051.450073,352.130981 1048.592651,344.000122 
	C1027.387085,344.000122 1006.084656,343.942688 984.784668,344.143646 
	C983.514893,344.155609 981.623535,346.001404 981.109802,347.395020 
	C977.897766,356.109131 975.078430,364.967621 971.901245,373.695404 
	C971.419739,375.018127 969.770142,376.832886 968.628906,376.856293 
	C957.168701,377.091248 945.701782,376.999237 933.752808,376.999237 
	C939.887939,360.206787 945.971313,343.888092 951.817139,327.484772 
	C963.315247,295.221466 974.659790,262.903442 986.118835,230.626221 
	C988.636230,223.535278 991.538696,216.577164 993.910156,209.440338 
	C994.785095,206.807281 995.906616,205.900421 998.666504,205.937637 
	C1009.822266,206.088074 1020.982666,206.095184 1032.138062,205.931381 
	C1034.837402,205.891739 1036.153564,206.621140 1037.050049,209.254883 
	C1041.950073,223.648651 1047.024536,237.983170 1052.091553,252.319519 
	C1052.519165,253.529022 1053.333130,254.601974 1053.984009,256.143829 
M1034.960083,303.637604 
	C1028.519775,285.195465 1022.079529,266.753326 1015.389954,247.597305 
	C1007.406677,270.657440 999.628967,293.123749 991.835022,315.636902 
	C1007.827942,315.636902 1023.347473,315.636902 1039.180908,315.636902 
	C1037.681396,311.625671 1036.340454,308.038391 1034.960083,303.637604 
z"/>
<path fill="#FFFFFF" opacity="1.000000" stroke="none" 
	d="
M543.775269,243.448135 
	C544.352600,246.719452 544.734436,249.604416 545.183716,252.998856 
	C532.905579,252.998856 520.949280,253.071564 508.997589,252.868240 
	C507.982574,252.850983 506.318909,251.116562 506.106628,249.967392 
	C504.145966,239.354111 494.020447,233.787567 485.463623,233.149261 
	C481.012848,232.817245 476.356110,233.626694 471.953705,234.629105 
	C464.570679,236.310211 461.256531,242.002960 460.070312,248.892838 
	C458.800446,256.268494 461.911285,261.801514 468.034790,266.050995 
	C477.196625,272.408936 487.824768,274.811493 498.197937,278.054138 
	C512.213318,282.435272 526.332458,286.541168 536.797363,298.103729 
	C541.681396,303.500061 544.378296,309.671814 545.915283,316.434296 
	C548.132202,326.188141 546.927979,335.737518 543.466797,345.143097 
	C538.424927,358.844299 528.478027,367.564728 515.433411,372.939575 
	C497.690247,380.250336 479.172760,380.089325 461.300385,374.735504 
	C437.326385,367.553925 424.038971,351.164612 423.016876,328.736481 
	C422.996216,328.283447 423.164246,327.821838 423.307739,327.000885 
	C434.820251,327.000885 446.278931,326.911591 457.731171,327.142975 
	C458.841034,327.165405 460.707306,329.063049 460.874023,330.275635 
	C462.302856,340.667175 471.479462,349.206482 482.269226,349.083679 
	C489.137878,349.005493 495.710907,349.258881 501.918030,345.111023 
	C513.720642,337.223999 514.179871,319.586365 500.292755,313.050568 
	C489.784607,308.105042 478.443268,304.923370 467.455383,301.005402 
	C457.487823,297.451355 447.452728,294.352844 438.839874,287.575439 
	C430.439880,280.965485 425.556396,272.579742 424.175385,262.408691 
	C423.120667,254.640671 423.195923,246.677719 425.500824,238.915710 
	C429.881989,224.161758 439.980774,214.469513 453.769135,209.227646 
	C474.761230,201.247131 496.195526,201.280975 516.849915,210.537369 
	C530.836304,216.805496 540.076477,227.776794 543.775269,243.448135 
z"/>
<path fill="#FFFFFF" opacity="1.000000" stroke="none" 
	d="
M844.000000,32.999947 
	C834.190735,32.999947 824.881470,32.999947 815.286865,32.999947 
	C815.286865,47.951916 815.286865,62.688835 815.286865,78.000046 
	C819.132385,78.000046 823.068481,78.000038 827.004639,78.000046 
	C840.834717,78.000053 854.665894,78.097115 868.494019,77.932961 
	C872.023010,77.891060 873.153320,79.065453 873.064270,82.546654 
	C872.860657,90.513512 872.999939,98.489120 872.999939,106.854980 
	C853.682983,106.854980 834.610840,106.854980 815.147217,106.854980 
	C815.147217,132.315964 815.147217,157.386261 815.147217,182.726959 
	C802.686279,182.726959 790.615784,182.726959 778.271606,182.726959 
	C778.271606,123.022018 778.271606,63.293453 778.271606,3.282272 
	C815.293274,3.282272 852.359131,3.282272 889.712830,3.282272 
	C889.712830,12.950656 889.712830,22.688786 889.712830,32.999947 
	C874.689270,32.999947 859.594666,32.999947 844.000000,32.999947 
z"/>
<path fill="#000000" opacity="1.000000" stroke="none" 
	d="
M702.349976,313.179077 
	C697.071045,328.532135 687.478943,339.461914 672.217773,344.185577 
	C651.792297,350.507721 632.800110,347.696075 617.464417,331.757019 
	C609.355225,323.328796 605.580688,312.597412 603.837219,300.902405 
	C602.279541,290.453247 603.067322,280.371613 606.088928,270.495483 
	C610.335022,256.616608 618.714172,245.368301 632.157227,239.742477 
	C640.901367,236.083099 650.430359,234.127930 660.587830,235.749191 
	C671.121033,237.430450 680.445862,240.463058 688.471619,247.738022 
	C698.413879,256.750275 702.973267,268.053986 705.128357,280.991119 
	C706.955200,291.958374 704.763184,302.359589 702.349976,313.179077 
z"/>
<path fill="#000000" opacity="1.000000" stroke="none" 
	d="
M1163.737061,56.348904 
	C1170.193848,74.869247 1176.434448,93.044579 1182.642456,111.231087 
	C1183.567627,113.941406 1184.338379,116.704399 1185.281372,119.770569 
	C1168.299438,119.770569 1151.752563,119.770569 1134.925781,119.770569 
	C1143.312378,95.469543 1151.603516,71.444771 1160.244629,46.406204 
	C1161.570068,50.302856 1162.540161,53.155193 1163.737061,56.348904 
z"/>
<path fill="#000000" opacity="1.000000" stroke="none" 
	d="
M653.720459,89.685074 
	C658.732422,75.423752 663.504456,61.491512 668.604492,46.601780 
	C677.189758,71.356514 685.517090,95.367653 693.953064,119.691986 
	C677.114624,119.691986 660.394348,119.691986 643.483215,119.691986 
	C646.783264,109.895554 650.131958,99.954857 653.720459,89.685074 
z"/>
<path fill="#000000" opacity="1.000000" stroke="none" 
	d="
M1205.786621,247.420609 
	C1211.447266,258.242950 1207.749390,275.520966 1198.092041,280.279968 
	C1194.568115,282.016571 1190.607178,283.662048 1186.778076,283.832306 
	C1176.024658,284.310455 1165.236328,283.999054 1154.232422,283.999054 
	C1154.232422,267.625000 1154.232422,251.576630 1154.232422,234.137848 
	C1167.206299,235.084595 1180.101685,235.699341 1192.910156,237.107269 
	C1198.723389,237.746307 1203.022583,241.637512 1205.786621,247.420609 
z"/>
<path fill="#000000" opacity="1.000000" stroke="none" 
	d="
M1034.979736,304.044342 
	C1036.340454,308.038391 1037.681396,311.625671 1039.180908,315.636902 
	C1023.347473,315.636902 1007.827942,315.636902 991.835022,315.636902 
	C999.628967,293.123749 1007.406677,270.657440 1015.389954,247.597305 
	C1022.079529,266.753326 1028.519775,285.195465 1034.979736,304.044342 
z"/>
</svg>