<svg viewBox="0 0 358 464" xmlns="http://www.w3.org/2000/svg"><path fill="#fcd1b6" fill-rule="evenodd" d="M5.686 6.647C5.309 7.025 5 108.678 5 232.544c0 190.097.215 225.389 1.378 226.355.959.796 7.567 1.061 21.75.872L48.5 459.5l.255-88.25.256-88.25h3.673c9.064 0 22.273-6.206 30.824-14.482 15.45-14.953 19.763-39.082 10.191-57.018a300.64 300.64 0 01-2.523-4.885C87.247 198.833 69.163 185 62.919 185c-.991 0-2.079-.45-2.419-1-.34-.55-3.064-1-6.054-1h-5.435l-.256-88.25L48.5 6.5l-21.064-.269c-11.585-.148-21.373.039-21.75.416m1.981 1.02C7.3 8.033 7 109.508 7 233.167V458h41V282.398l7.75-1.364c4.262-.75 8.425-1.691 9.25-2.09.825-.399 3.544-1.697 6.043-2.885 6.398-3.043 16.026-11.932 19.161-17.692 4.758-8.743 6.073-14.132 6.188-25.367.112-10.921-1.182-17.184-4.578-22.154-.998-1.46-1.814-3.091-1.814-3.624 0-2.098-12.123-13.971-16.946-16.596-6.139-3.341-9.486-4.448-18.054-5.971l-6.5-1.155-.255-88.25L47.989 7H28.161c-10.905 0-20.128.3-20.494.667m239.866 25.3L232.59 47.935l2.429 2.782c1.336 1.531 4.772 5.258 7.637 8.283 7.277 7.685 20.88 26.241 28.095 38.325 7.936 13.294 17.95 33.48 20.378 41.08 1.06 3.318 2.59 7.043 3.399 8.278.81 1.236 1.472 3.136 1.472 4.223 0 1.087.4 2.223.89 2.526.489.302 1.131 2.016 1.427 3.809.296 1.792 1 5.059 1.565 7.259 5.012 19.531 6.716 30.472 8.097 52 2.018 31.449-1.072 60.704-9.506 90-1.266 4.4-2.619 8.9-3.005 10-1.213 3.451-5.608 14.845-7.137 18.5-1.905 4.558-10.964 22.921-12.579 25.5-.688 1.1-2.499 3.949-4.024 6.332-1.524 2.383-3.669 5.983-4.767 8-1.098 2.017-3.561 5.693-5.474 8.168-1.912 2.475-4.6 6.075-5.973 8-5.085 7.132-7.16 9.641-13.36 16.158-11.035 11.599-11.558 8.908 4.952 25.448 7.902 7.917 15.09 14.394 15.973 14.394 2.069 0 21.018-20.193 26.138-27.856.972-1.454 3.344-4.669 5.27-7.144 4.787-6.149 8.513-11.777 8.513-12.858 0-.493.697-1.476 1.55-2.183.852-.707 2.426-3.21 3.497-5.562 1.071-2.352 2.37-4.537 2.887-4.856.517-.32 1.578-1.809 2.36-3.311 7.873-15.135 17.718-35.672 17.712-36.95-.003-.67.894-2.822 1.994-4.78 1.1-1.958 2-4.421 2-5.471 0-1.051.45-2.189 1-2.529.55-.34 1-1.498 1-2.573s.397-2.736.883-3.691c1.732-3.403 2.975-6.78 3.586-9.736.608-2.941 1.723-7.523 3.528-14.5 2.639-10.2 3.545-15.222 6.049-33.5.528-3.85 1.238-17.329 1.578-29.954.59-21.896.007-33.02-2.623-50.046-.51-3.3-1.431-9.375-2.047-13.5-.616-4.125-1.533-8.281-2.037-9.236-.504-.955-.917-2.499-.917-3.429 0-.931-.42-3.075-.932-4.764-.513-1.689-1.446-5.096-2.074-7.571-1.863-7.339-5.22-17.429-6.139-18.45-.47-.523-.855-1.958-.855-3.191 0-1.233-.45-2.519-1-2.859-.55-.34-1-1.288-1-2.107 0-.819-.9-3.352-2-5.629-1.1-2.277-2-4.73-2-5.452 0-.722-.45-1.312-1-1.312s-1-.821-1-1.825c0-1.837-11.374-25.095-12.775-26.123-.414-.304-1.829-2.69-3.146-5.302-1.316-2.612-2.773-4.75-3.236-4.75-.464 0-.843-.474-.843-1.053 0-1.188-7.235-12.134-12.523-18.947-1.921-2.475-4.277-5.66-5.235-7.078-2.621-3.878-9.957-12.466-17.242-20.183-3.575-3.787-6.65-7.302-6.833-7.812-.808-2.246-3.572-.046-17.634 14.04m1.01.99l-13.931 13.957 1.928 2.293c1.06 1.261 4.635 5.218 7.944 8.793 7.04 7.606 18.627 23.202 26.082 35.105C276.957 104.309 291 131.861 291 134.196c0 .927.388 1.926.863 2.219.474.294 1.436 2.582 2.137 5.085.701 2.503 1.663 4.791 2.137 5.085.475.293.863 1.413.863 2.488s.406 2.736.903 3.691c.846 1.629 1.545 4.06 4.165 14.486a351.83 351.83 0 001.905 7.25c.461 1.65 1.313 5.925 1.895 9.5 5.937 36.492 6.19 57.04 1.132 92-.517 3.575-1.225 8.525-1.573 11-.347 2.475-1.036 4.927-1.529 5.45-.494.522-.898 1.964-.898 3.203 0 1.239-.403 3.287-.896 4.55s-1.451 4.322-2.13 6.797c-1.179 4.295-2.385 7.844-7.054 20.75-2.816 7.781-15.29 32.839-19.626 39.422-1.929 2.931-4.368 6.903-5.419 8.828-1.05 1.925-3.475 5.525-5.388 8-1.912 2.475-4.6 6.075-5.973 8-5.188 7.277-7.206 9.697-14.014 16.806-3.85 4.02-7.167 7.785-7.372 8.367-.511 1.455 25.96 27.827 27.932 27.827 2.471 0 17.169-16.06 27.44-29.981 1.65-2.237 4.35-5.808 6-7.937 1.65-2.128 4.8-6.876 7-10.55 2.2-3.674 5.081-8.334 6.403-10.356 5.886-9.002 19.948-38.969 24.485-52.176a482.39 482.39 0 013.212-9c.916-2.475 2.055-6.187 2.533-8.25.948-4.1 2.397-10.029 3.97-16.25 2.892-11.435 5.542-30.889 6.966-51.141 1.02-14.499 1.03-21.424.049-34.5-.675-8.997-1.456-17.709-1.735-19.359-.775-4.574-2.28-15.41-2.917-21-.314-2.75-.946-5.9-1.404-7-.809-1.94-2.166-6.754-4.227-15-2.145-8.58-3.215-12.037-4.009-12.95-.454-.523-.826-1.958-.826-3.191 0-1.233-.45-2.519-1-2.859-.55-.34-1-1.626-1-2.859s-.381-2.668-.847-3.191c-.466-.522-2.341-4.775-4.167-9.45-7.839-20.071-23.289-47.128-38.257-67-9.205-12.22-25.55-30.769-27.242-30.913-.558-.048-7.282 6.194-14.944 13.87m-60.306 58.306c-7.83 7.844-14.237 14.856-14.237 15.583 0 .726 3.308 5.221 7.352 9.987 6.721 7.924 17.648 23.212 17.648 24.692 0 .338 1.255 2.496 2.789 4.795 2.619 3.926 6.206 11.002 8.454 16.68.545 1.375 1.388 3.281 1.874 4.236.486.955.883 2.404.883 3.22 0 .816.834 2.967 1.852 4.781 1.019 1.814 2.117 4.64 2.439 6.281.322 1.64 1.092 5.007 1.71 7.482 6.088 24.371 6.094 61.95.014 86-.626 2.475-1.387 5.743-1.692 7.262-.304 1.519-.952 3.009-1.438 3.309-.487.301-.885 1.407-.885 2.458 0 1.05-.9 3.513-2 5.471-1.1 1.958-2 4.126-2 4.817 0 1.538-10.262 22.152-12.195 24.495-.765.929-2.047 3.035-2.848 4.681-.801 1.646-2.582 4.271-3.957 5.834-1.375 1.562-2.725 3.407-3 4.099-.275.692-2.404 3.467-4.732 6.166a4862.01 4862.01 0 00-7.234 8.408c-1.651 1.925-3.009 4.181-3.018 5.013-.018 1.665 27.883 29.987 29.541 29.987.568 0 2.671-2.137 4.674-4.75 2.003-2.613 5.921-6.983 8.706-9.712 2.784-2.73 5.063-5.458 5.063-6.063 0-.606 1.35-2.394 3-3.975s3-3.395 3-4.032.9-1.973 2-2.968c1.1-.995 2-2.36 2-3.033 0-.672.697-1.801 1.55-2.508.852-.707 2.426-3.21 3.497-5.562 1.071-2.352 2.374-4.539 2.895-4.861 1.053-.651 8.211-15.257 11.291-23.036 7.228-18.262 11.917-34.625 14.47-50.5 2.399-14.916 2.404-52.411.01-67.373-2.517-15.724-7.574-35.124-11.28-43.278-.788-1.733-1.433-3.514-1.433-3.957 0-1.129-12.998-27.346-15.067-30.392-.935-1.375-2.696-4.3-3.916-6.5-1.854-3.345-9.275-13.783-11.02-15.5-.28-.275-1.719-2.125-3.198-4.111-1.479-1.986-4.401-5.446-6.494-7.689a541.741 541.741 0 01-6.539-7.139c-1.504-1.683-3.084-3.061-3.513-3.061-.428 0-7.186 6.418-15.016 14.263m.373 1.627c-9.172 9.189-13.603 14.313-13.093 15.138.425.687 2.688 3.324 5.03 5.86 6.204 6.719 19.453 24.854 19.453 26.627 0 .344 1.255 2.506 2.789 4.805 2.619 3.926 6.206 11.002 8.454 16.68.545 1.375 1.388 3.281 1.874 4.236.486.955.883 2.404.883 3.22 0 .816.809 2.959 1.798 4.764.989 1.804 2.823 7.78 4.076 13.28 1.253 5.5 2.717 11.575 3.254 13.5 1.657 5.944 2.314 43.803.941 54.212-1.855 14.055-5.916 30.256-9.636 38.439-.788 1.733-1.433 3.497-1.433 3.92 0 1.578-12.136 25.297-13.54 26.462-.803.667-1.462 1.719-1.464 2.339-.003.621-1.803 3.5-4 6.398-2.198 2.899-4.001 5.599-4.007 6-.006.402-1.706 2.53-3.779 4.73-2.073 2.2-5.521 6.166-7.662 8.814l-3.894 4.814 13.91 13.936c12.399 12.423 16.393 15.623 16.455 13.186.011-.413 3.593-4.575 7.961-9.25 4.367-4.675 7.958-8.978 7.98-9.563.022-.585 1.39-2.356 3.04-3.937 1.65-1.581 3-3.395 3-4.032s.9-1.973 2-2.968c1.1-.995 2-2.36 2-3.033 0-.672.683-1.789 1.518-2.482.836-.693 2.261-2.886 3.168-4.873.907-1.986 2.294-4.373 3.083-5.302 1.93-2.277 10.231-18.896 10.231-20.485 0-.695.9-2.867 2-4.825 1.1-1.958 2-4.421 2-5.471 0-1.051.45-2.189 1-2.529.55-.34 1-1.69 1-3s.45-2.66 1-3c.55-.34 1-1.498 1-2.573s.424-2.736.942-3.691c1.099-2.026 4.629-16.709 5.586-23.236 1.976-13.472 2.488-18.828 3.089-32.314.854-19.189-1.454-40.263-6.536-59.686a3658.794 3658.794 0 01-2.605-10c-.354-1.375-1.012-3.4-1.462-4.5-.45-1.1-1.811-4.7-3.023-8-2.901-7.899-13.645-29.886-17.191-35.18-1.54-2.299-2.8-4.468-2.8-4.82 0-.693-5.977-9.681-6.982-10.5-.338-.275-1.696-2.075-3.018-4-1.322-1.925-2.65-3.725-2.952-4-.301-.275-3.022-3.425-6.046-7-6.836-8.082-9.68-11-10.72-11-.445 0-7.047 6.251-14.672 13.89m-61.547 59.547c-10.942 10.962-14.163 14.754-13.379 15.75.568.722 3.383 4.238 6.256 7.813 8.962 11.151 15.534 26.404 18.099 42 1.947 11.845.634 29.694-2.996 40.709-4.29 13.018-12.788 28.13-18.958 33.714-3.899 3.528-2.74 5.449 12.404 20.566l14.49 14.464 5.51-5.442c3.031-2.994 5.511-5.936 5.511-6.54 0-.603 1.35-2.39 3-3.971s3-3.41 3-4.065c0-.654.645-1.726 1.434-2.38 1.257-1.043 11.026-20.209 13.79-27.055.555-1.375 1.407-3.281 1.893-4.236.486-.955.883-2.841.883-4.191 0-1.35.45-2.733 1-3.073.55-.34 1-2.14 1-4 0-1.86.45-3.66 1-4 .55-.34 1-2.902 1-5.694 0-2.791.525-7.927 1.168-11.412 2.348-12.748-2.077-41.662-8.709-56.894-.718-1.65-1.961-4.909-2.762-7.241-1.286-3.744-9.181-17.935-10.714-19.259-.319-.275-1.67-2.075-3.004-4-5.796-8.366-12.895-16-14.879-16-.894 0-8.111 6.497-16.037 14.437m1.259.813L114.17 168.5l3.41 3.5c1.875 1.925 3.412 3.768 3.415 4.094.003.327 1.159 1.902 2.569 3.5 5.012 5.679 11.571 20.686 15.434 35.312 2.498 9.461.975 39.877-2.181 43.544-.449.523-.817 1.958-.817 3.191 0 1.233-.45 2.519-1 2.859-.55.34-1 1.422-1 2.405 0 2.052-2.684 7.782-4.037 8.618-.5.309-1.695 2.23-2.654 4.269-.959 2.04-3.784 6.34-6.277 9.556-2.492 3.217-4.98 6.48-5.527 7.251-.766 1.078 2.288 4.685 13.228 15.625l14.224 14.224 4.127-3.974c2.27-2.186 5.216-5.549 6.546-7.474 1.33-1.925 3.733-5.3 5.339-7.5 3.284-4.499 11.883-21.298 14.947-29.202 8.568-22.1 10.131-51.776 4.071-77.298-2.645-11.14-8.847-26.83-13.632-34.486C157.666 155.808 144.95 140 143.029 140c-.305 0-6.923 6.412-14.707 14.25"/><path fill="#fc954e" fill-rule="evenodd" d="M7.667 7.667C7.3 8.033 7 109.508 7 233.167V458h41V282.398l7.75-1.364c4.262-.75 8.425-1.691 9.25-2.09.825-.399 3.544-1.697 6.043-2.885 6.398-3.043 16.026-11.932 19.161-17.692 4.758-8.743 6.073-14.132 6.188-25.367.112-10.921-1.182-17.184-4.578-22.154-.998-1.46-1.814-3.091-1.814-3.624 0-2.098-12.123-13.971-16.946-16.596-6.139-3.341-9.486-4.448-18.054-5.971l-6.5-1.155-.255-88.25L47.989 7H28.161c-10.905 0-20.128.3-20.494.667m240.876 26.29l-13.931 13.957 1.928 2.293c1.06 1.261 4.635 5.218 7.944 8.793 7.04 7.606 18.627 23.202 26.082 35.105C276.957 104.309 291 131.861 291 134.196c0 .927.388 1.926.863 2.219.474.294 1.436 2.582 2.137 5.085.701 2.503 1.663 4.791 2.137 5.085.475.293.863 1.413.863 2.488s.406 2.736.903 3.691c.846 1.629 1.545 4.06 4.165 14.486a351.83 351.83 0 001.905 7.25c.461 1.65 1.313 5.925 1.895 9.5 5.937 36.492 6.19 57.04 1.132 92-.517 3.575-1.225 8.525-1.573 11-.347 2.475-1.036 4.927-1.529 5.45-.494.522-.898 1.964-.898 3.203 0 1.239-.403 3.287-.896 4.55s-1.451 4.322-2.13 6.797c-1.179 4.295-2.385 7.844-7.054 20.75-2.816 7.781-15.29 32.839-19.626 39.422-1.929 2.931-4.368 6.903-5.419 8.828-1.05 1.925-3.475 5.525-5.388 8-1.912 2.475-4.6 6.075-5.973 8-5.188 7.277-7.206 9.697-14.014 16.806-3.85 4.02-7.167 7.785-7.372 8.367-.511 1.455 25.96 27.827 27.932 27.827 2.471 0 17.169-16.06 27.44-29.981 1.65-2.237 4.35-5.808 6-7.937 1.65-2.128 4.8-6.876 7-10.55 2.2-3.674 5.081-8.334 6.403-10.356 5.886-9.002 19.948-38.969 24.485-52.176a482.39 482.39 0 013.212-9c.916-2.475 2.055-6.187 2.533-8.25.948-4.1 2.397-10.029 3.97-16.25 2.892-11.435 5.542-30.889 6.966-51.141 1.02-14.499 1.03-21.424.049-34.5-.675-8.997-1.456-17.709-1.735-19.359-.775-4.574-2.28-15.41-2.917-21-.314-2.75-.946-5.9-1.404-7-.809-1.94-2.166-6.754-4.227-15-2.145-8.58-3.215-12.037-4.009-12.95-.454-.523-.826-1.958-.826-3.191 0-1.233-.45-2.519-1-2.859-.55-.34-1-1.626-1-2.859s-.381-2.668-.847-3.191c-.466-.522-2.341-4.775-4.167-9.45-7.839-20.071-23.289-47.128-38.257-67-9.205-12.22-25.55-30.769-27.242-30.913-.558-.048-7.282 6.194-14.944 13.87M188.61 93.89c-9.172 9.189-13.603 14.313-13.093 15.138.425.687 2.688 3.324 5.03 5.86 6.204 6.719 19.453 24.854 19.453 26.627 0 .344 1.255 2.506 2.789 4.805 2.619 3.926 6.206 11.002 8.454 16.68.545 1.375 1.388 3.281 1.874 4.236.486.955.883 2.404.883 3.22 0 .816.809 2.959 1.798 4.764.989 1.804 2.823 7.78 4.076 13.28 1.253 5.5 2.717 11.575 3.254 13.5 1.657 5.944 2.314 43.803.941 54.212-1.855 14.055-5.916 30.256-9.636 38.439-.788 1.733-1.433 3.497-1.433 3.92 0 1.578-12.136 25.297-13.54 26.462-.803.667-1.462 1.719-1.464 2.339-.003.621-1.803 3.5-4 6.398-2.198 2.899-4.001 5.599-4.007 6-.006.402-1.706 2.53-3.779 4.73-2.073 2.2-5.521 6.166-7.662 8.814l-3.894 4.814 13.91 13.936c12.399 12.423 16.393 15.623 16.455 13.186.011-.413 3.593-4.575 7.961-9.25 4.367-4.675 7.958-8.978 7.98-9.563.022-.585 1.39-2.356 3.04-3.937 1.65-1.581 3-3.395 3-4.032s.9-1.973 2-2.968c1.1-.995 2-2.36 2-3.033 0-.672.683-1.789 1.518-2.482.836-.693 2.261-2.886 3.168-4.873.907-1.986 2.294-4.373 3.083-5.302 1.93-2.277 10.231-18.896 10.231-20.485 0-.695.9-2.867 2-4.825 1.1-1.958 2-4.421 2-5.471 0-1.051.45-2.189 1-2.529.55-.34 1-1.69 1-3s.45-2.66 1-3c.55-.34 1-1.498 1-2.573s.424-2.736.942-3.691c1.099-2.026 4.629-16.709 5.586-23.236 1.976-13.472 2.488-18.828 3.089-32.314.854-19.189-1.454-40.263-6.536-59.686a3658.794 3658.794 0 01-2.605-10c-.354-1.375-1.012-3.4-1.462-4.5-.45-1.1-1.811-4.7-3.023-8-2.901-7.899-13.645-29.886-17.191-35.18-1.54-2.299-2.8-4.468-2.8-4.82 0-.693-5.977-9.681-6.982-10.5-.338-.275-1.696-2.075-3.018-4-1.322-1.925-2.65-3.725-2.952-4-.301-.275-3.022-3.425-6.046-7-6.836-8.082-9.68-11-10.72-11-.445 0-7.047 6.251-14.672 13.89m-60.288 60.36L114.17 168.5l3.41 3.5c1.875 1.925 3.412 3.768 3.415 4.094.003.327 1.159 1.902 2.569 3.5 5.012 5.679 11.571 20.686 15.434 35.312 2.498 9.461.975 39.877-2.181 43.544-.449.523-.817 1.958-.817 3.191 0 1.233-.45 2.519-1 2.859-.55.34-1 1.422-1 2.405 0 2.052-2.684 7.782-4.037 8.618-.5.309-1.695 2.23-2.654 4.269-.959 2.04-3.784 6.34-6.277 9.556-2.492 3.217-4.98 6.48-5.527 7.251-.766 1.078 2.288 4.685 13.228 15.625l14.224 14.224 4.127-3.974c2.27-2.186 5.216-5.549 6.546-7.474 1.33-1.925 3.733-5.3 5.339-7.5 3.284-4.499 11.883-21.298 14.947-29.202 8.568-22.1 10.131-51.776 4.071-77.298-2.645-11.14-8.847-26.83-13.632-34.486C157.666 155.808 144.95 140 143.029 140c-.305 0-6.923 6.412-14.707 14.25"/></svg>