<svg xmlns="http://www.w3.org/2000/svg" width="358" height="464" viewBox="0 0 358 464" version="1.1"><path d="M 5.686 6.647 C 5.309 7.025, 5 108.678, 5 232.544 C 5 422.641, 5.215 457.933, 6.378 458.899 C 7.337 459.695, 13.945 459.960, 28.128 459.771 L 48.500 459.500 48.755 371.250 L 49.011 283 52.684 283 C 61.748 283, 74.957 276.794, 83.508 268.518 C 98.958 253.565, 103.271 229.436, 93.699 211.500 C 93.112 210.400, 91.977 208.202, 91.176 206.615 C 87.247 198.833, 69.163 185, 62.919 185 C 61.928 185, 60.840 184.550, 60.500 184 C 60.160 183.450, 57.436 183, 54.446 183 L 49.011 183 48.755 94.750 L 48.500 6.500 27.436 6.231 C 15.851 6.083, 6.063 6.270, 5.686 6.647 M 7.667 7.667 C 7.300 8.033, 7 109.508, 7 233.167 L 7 458 27.500 458 L 48 458 48 370.199 L 48 282.398 55.750 281.034 C 60.012 280.284, 64.175 279.343, 65 278.944 C 65.825 278.545, 68.544 277.247, 71.043 276.059 C 77.441 273.016, 87.069 264.127, 90.204 258.367 C 94.962 249.624, 96.277 244.235, 96.392 233 C 96.504 222.079, 95.210 215.816, 91.814 210.846 C 90.816 209.386, 90 207.755, 90 207.222 C 90 205.124, 77.877 193.251, 73.054 190.626 C 66.915 187.285, 63.568 186.178, 55 184.655 L 48.500 183.500 48.245 95.250 L 47.989 7 28.161 7 C 17.256 7, 8.033 7.300, 7.667 7.667 M 247.533 32.967 L 232.590 47.935 235.019 50.717 C 236.355 52.248, 239.791 55.975, 242.656 59 C 249.933 66.685, 263.536 85.241, 270.751 97.325 C 278.687 110.619, 288.701 130.805, 291.129 138.405 C 292.189 141.723, 293.719 145.448, 294.528 146.683 C 295.338 147.919, 296 149.819, 296 150.906 C 296 151.993, 296.400 153.129, 296.890 153.432 C 297.379 153.734, 298.021 155.448, 298.317 157.241 C 298.613 159.033, 299.317 162.300, 299.882 164.500 C 304.894 184.031, 306.598 194.972, 307.979 216.500 C 309.997 247.949, 306.907 277.204, 298.473 306.500 C 297.207 310.900, 295.854 315.400, 295.468 316.500 C 294.255 319.951, 289.860 331.345, 288.331 335 C 286.426 339.558, 277.367 357.921, 275.752 360.500 C 275.064 361.600, 273.253 364.449, 271.728 366.832 C 270.204 369.215, 268.059 372.815, 266.961 374.832 C 265.863 376.849, 263.400 380.525, 261.487 383 C 259.575 385.475, 256.887 389.075, 255.514 391 C 250.429 398.132, 248.354 400.641, 242.154 407.158 C 231.119 418.757, 230.596 416.066, 247.106 432.606 C 255.008 440.523, 262.196 447, 263.079 447 C 265.148 447, 284.097 426.807, 289.217 419.144 C 290.189 417.690, 292.561 414.475, 294.487 412 C 299.274 405.851, 303 400.223, 303 399.142 C 303 398.649, 303.697 397.666, 304.550 396.959 C 305.402 396.252, 306.976 393.749, 308.047 391.397 C 309.118 389.045, 310.417 386.860, 310.934 386.541 C 311.451 386.221, 312.512 384.732, 313.294 383.230 C 321.167 368.095, 331.012 347.558, 331.006 346.280 C 331.003 345.610, 331.900 343.458, 333 341.500 C 334.100 339.542, 335 337.079, 335 336.029 C 335 334.978, 335.450 333.840, 336 333.500 C 336.550 333.160, 337 332.002, 337 330.927 C 337 329.852, 337.397 328.191, 337.883 327.236 C 339.615 323.833, 340.858 320.456, 341.469 317.500 C 342.077 314.559, 343.192 309.977, 344.997 303 C 347.636 292.800, 348.542 287.778, 351.046 269.500 C 351.574 265.650, 352.284 252.171, 352.624 239.546 C 353.214 217.650, 352.631 206.526, 350.001 189.500 C 349.491 186.200, 348.570 180.125, 347.954 176 C 347.338 171.875, 346.421 167.719, 345.917 166.764 C 345.413 165.809, 345 164.265, 345 163.335 C 345 162.404, 344.580 160.260, 344.068 158.571 C 343.555 156.882, 342.622 153.475, 341.994 151 C 340.131 143.661, 336.774 133.571, 335.855 132.550 C 335.385 132.027, 335 130.592, 335 129.359 C 335 128.126, 334.550 126.840, 334 126.500 C 333.450 126.160, 333 125.212, 333 124.393 C 333 123.574, 332.100 121.041, 331 118.764 C 329.900 116.487, 329 114.034, 329 113.312 C 329 112.590, 328.550 112, 328 112 C 327.450 112, 327 111.179, 327 110.175 C 327 108.338, 315.626 85.080, 314.225 84.052 C 313.811 83.748, 312.396 81.362, 311.079 78.750 C 309.763 76.138, 308.306 74, 307.843 74 C 307.379 74, 307 73.526, 307 72.947 C 307 71.759, 299.765 60.813, 294.477 54 C 292.556 51.525, 290.200 48.340, 289.242 46.922 C 286.621 43.044, 279.285 34.456, 272 26.739 C 268.425 22.952, 265.350 19.437, 265.167 18.927 C 264.359 16.681, 261.595 18.881, 247.533 32.967 M 248.543 33.957 L 234.612 47.914 236.540 50.207 C 237.600 51.468, 241.175 55.425, 244.484 59 C 251.524 66.606, 263.111 82.202, 270.566 94.105 C 276.957 104.309, 291 131.861, 291 134.196 C 291 135.123, 291.388 136.122, 291.863 136.415 C 292.337 136.709, 293.299 138.997, 294 141.500 C 294.701 144.003, 295.663 146.291, 296.137 146.585 C 296.612 146.878, 297 147.998, 297 149.073 C 297 150.148, 297.406 151.809, 297.903 152.764 C 298.749 154.393, 299.448 156.824, 302.068 167.250 C 302.655 169.588, 303.512 172.850, 303.973 174.500 C 304.434 176.150, 305.286 180.425, 305.868 184 C 311.805 220.492, 312.058 241.040, 307 276 C 306.483 279.575, 305.775 284.525, 305.427 287 C 305.080 289.475, 304.391 291.927, 303.898 292.450 C 303.404 292.972, 303 294.414, 303 295.653 C 303 296.892, 302.597 298.940, 302.104 300.203 C 301.611 301.466, 300.653 304.525, 299.974 307 C 298.795 311.295, 297.589 314.844, 292.920 327.750 C 290.104 335.531, 277.630 360.589, 273.294 367.172 C 271.365 370.103, 268.926 374.075, 267.875 376 C 266.825 377.925, 264.400 381.525, 262.487 384 C 260.575 386.475, 257.887 390.075, 256.514 392 C 251.326 399.277, 249.308 401.697, 242.500 408.806 C 238.650 412.826, 235.333 416.591, 235.128 417.173 C 234.617 418.628, 261.088 445, 263.060 445 C 265.531 445, 280.229 428.940, 290.500 415.019 C 292.150 412.782, 294.850 409.211, 296.500 407.082 C 298.150 404.954, 301.300 400.206, 303.500 396.532 C 305.700 392.858, 308.581 388.198, 309.903 386.176 C 315.789 377.174, 329.851 347.207, 334.388 334 C 335.238 331.525, 336.683 327.475, 337.600 325 C 338.516 322.525, 339.655 318.813, 340.133 316.750 C 341.081 312.650, 342.530 306.721, 344.103 300.500 C 346.995 289.065, 349.645 269.611, 351.069 249.359 C 352.089 234.860, 352.099 227.935, 351.118 214.859 C 350.443 205.862, 349.662 197.150, 349.383 195.500 C 348.608 190.926, 347.103 180.090, 346.466 174.500 C 346.152 171.750, 345.520 168.600, 345.062 167.500 C 344.253 165.560, 342.896 160.746, 340.835 152.500 C 338.690 143.920, 337.620 140.463, 336.826 139.550 C 336.372 139.027, 336 137.592, 336 136.359 C 336 135.126, 335.550 133.840, 335 133.500 C 334.450 133.160, 334 131.874, 334 130.641 C 334 129.408, 333.619 127.973, 333.153 127.450 C 332.687 126.928, 330.812 122.675, 328.986 118 C 321.147 97.929, 305.697 70.872, 290.729 51 C 281.524 38.780, 265.179 20.231, 263.487 20.087 C 262.929 20.039, 256.205 26.281, 248.543 33.957 M 188.237 92.263 C 180.407 100.107, 174 107.119, 174 107.846 C 174 108.572, 177.308 113.067, 181.352 117.833 C 188.073 125.757, 199 141.045, 199 142.525 C 199 142.863, 200.255 145.021, 201.789 147.320 C 204.408 151.246, 207.995 158.322, 210.243 164 C 210.788 165.375, 211.631 167.281, 212.117 168.236 C 212.603 169.191, 213 170.640, 213 171.456 C 213 172.272, 213.834 174.423, 214.852 176.237 C 215.871 178.051, 216.969 180.877, 217.291 182.518 C 217.613 184.158, 218.383 187.525, 219.001 190 C 225.089 214.371, 225.095 251.950, 219.015 276 C 218.389 278.475, 217.628 281.743, 217.323 283.262 C 217.019 284.781, 216.371 286.271, 215.885 286.571 C 215.398 286.872, 215 287.978, 215 289.029 C 215 290.079, 214.100 292.542, 213 294.500 C 211.900 296.458, 211 298.626, 211 299.317 C 211 300.855, 200.738 321.469, 198.805 323.812 C 198.040 324.741, 196.758 326.847, 195.957 328.493 C 195.156 330.139, 193.375 332.764, 192 334.327 C 190.625 335.889, 189.275 337.734, 189 338.426 C 188.725 339.118, 186.596 341.893, 184.268 344.592 C 181.940 347.291, 178.685 351.075, 177.034 353 C 175.383 354.925, 174.025 357.181, 174.016 358.013 C 173.998 359.678, 201.899 388, 203.557 388 C 204.125 388, 206.228 385.863, 208.231 383.250 C 210.234 380.637, 214.152 376.267, 216.937 373.538 C 219.721 370.808, 222 368.080, 222 367.475 C 222 366.869, 223.350 365.081, 225 363.500 C 226.650 361.919, 228 360.105, 228 359.468 C 228 358.831, 228.900 357.495, 230 356.500 C 231.100 355.505, 232 354.140, 232 353.467 C 232 352.795, 232.697 351.666, 233.550 350.959 C 234.402 350.252, 235.976 347.749, 237.047 345.397 C 238.118 343.045, 239.421 340.858, 239.942 340.536 C 240.995 339.885, 248.153 325.279, 251.233 317.500 C 258.461 299.238, 263.150 282.875, 265.703 267 C 268.102 252.084, 268.107 214.589, 265.713 199.627 C 263.196 183.903, 258.139 164.503, 254.433 156.349 C 253.645 154.616, 253 152.835, 253 152.392 C 253 151.263, 240.002 125.046, 237.933 122 C 236.998 120.625, 235.237 117.700, 234.017 115.500 C 232.163 112.155, 224.742 101.717, 222.997 100 C 222.717 99.725, 221.278 97.875, 219.799 95.889 C 218.320 93.903, 215.398 90.443, 213.305 88.200 C 211.212 85.958, 208.270 82.745, 206.766 81.061 C 205.262 79.378, 203.682 78, 203.253 78 C 202.825 78, 196.067 84.418, 188.237 92.263 M 188.610 93.890 C 179.438 103.079, 175.007 108.203, 175.517 109.028 C 175.942 109.715, 178.205 112.352, 180.547 114.888 C 186.751 121.607, 200 139.742, 200 141.515 C 200 141.859, 201.255 144.021, 202.789 146.320 C 205.408 150.246, 208.995 157.322, 211.243 163 C 211.788 164.375, 212.631 166.281, 213.117 167.236 C 213.603 168.191, 214 169.640, 214 170.456 C 214 171.272, 214.809 173.415, 215.798 175.220 C 216.787 177.024, 218.621 183, 219.874 188.500 C 221.127 194, 222.591 200.075, 223.128 202 C 224.785 207.944, 225.442 245.803, 224.069 256.212 C 222.214 270.267, 218.153 286.468, 214.433 294.651 C 213.645 296.384, 213 298.148, 213 298.571 C 213 300.149, 200.864 323.868, 199.460 325.033 C 198.657 325.700, 197.998 326.752, 197.996 327.372 C 197.993 327.993, 196.193 330.872, 193.996 333.770 C 191.798 336.669, 189.995 339.369, 189.989 339.770 C 189.983 340.172, 188.283 342.300, 186.210 344.500 C 184.137 346.700, 180.689 350.666, 178.548 353.314 L 174.654 358.128 188.564 372.064 C 200.963 384.487, 204.957 387.687, 205.019 385.250 C 205.030 384.837, 208.612 380.675, 212.980 376 C 217.347 371.325, 220.938 367.022, 220.960 366.437 C 220.982 365.852, 222.350 364.081, 224 362.500 C 225.650 360.919, 227 359.105, 227 358.468 C 227 357.831, 227.900 356.495, 229 355.500 C 230.100 354.505, 231 353.140, 231 352.467 C 231 351.795, 231.683 350.678, 232.518 349.985 C 233.354 349.292, 234.779 347.099, 235.686 345.112 C 236.593 343.126, 237.980 340.739, 238.769 339.810 C 240.699 337.533, 249 320.914, 249 319.325 C 249 318.630, 249.900 316.458, 251 314.500 C 252.100 312.542, 253 310.079, 253 309.029 C 253 307.978, 253.450 306.840, 254 306.500 C 254.550 306.160, 255 304.810, 255 303.500 C 255 302.190, 255.450 300.840, 256 300.500 C 256.550 300.160, 257 299.002, 257 297.927 C 257 296.852, 257.424 295.191, 257.942 294.236 C 259.041 292.210, 262.571 277.527, 263.528 271 C 265.504 257.528, 266.016 252.172, 266.617 238.686 C 267.471 219.497, 265.163 198.423, 260.081 179 C 259.002 174.875, 257.829 170.375, 257.476 169 C 257.122 167.625, 256.464 165.600, 256.014 164.500 C 255.564 163.400, 254.203 159.800, 252.991 156.500 C 250.090 148.601, 239.346 126.614, 235.800 121.320 C 234.260 119.021, 233 116.852, 233 116.500 C 233 115.807, 227.023 106.819, 226.018 106 C 225.680 105.725, 224.322 103.925, 223 102 C 221.678 100.075, 220.350 98.275, 220.048 98 C 219.747 97.725, 217.026 94.575, 214.002 91 C 207.166 82.918, 204.322 80, 203.282 80 C 202.837 80, 196.235 86.251, 188.610 93.890 M 127.063 153.437 C 116.121 164.399, 112.900 168.191, 113.684 169.187 C 114.252 169.909, 117.067 173.425, 119.940 177 C 128.902 188.151, 135.474 203.404, 138.039 219 C 139.986 230.845, 138.673 248.694, 135.043 259.709 C 130.753 272.727, 122.255 287.839, 116.085 293.423 C 112.186 296.951, 113.345 298.872, 128.489 313.989 L 142.979 328.453 148.489 323.011 C 151.520 320.017, 154 317.075, 154 316.471 C 154 315.868, 155.350 314.081, 157 312.500 C 158.650 310.919, 160 309.090, 160 308.435 C 160 307.781, 160.645 306.709, 161.434 306.055 C 162.691 305.012, 172.460 285.846, 175.224 279 C 175.779 277.625, 176.631 275.719, 177.117 274.764 C 177.603 273.809, 178 271.923, 178 270.573 C 178 269.223, 178.450 267.840, 179 267.500 C 179.550 267.160, 180 265.360, 180 263.500 C 180 261.640, 180.450 259.840, 181 259.500 C 181.550 259.160, 182 256.598, 182 253.806 C 182 251.015, 182.525 245.879, 183.168 242.394 C 185.516 229.646, 181.091 200.732, 174.459 185.500 C 173.741 183.850, 172.498 180.591, 171.697 178.259 C 170.411 174.515, 162.516 160.324, 160.983 159 C 160.664 158.725, 159.313 156.925, 157.979 155 C 152.183 146.634, 145.084 139, 143.100 139 C 142.206 139, 134.989 145.497, 127.063 153.437 M 128.322 154.250 L 114.170 168.500 117.580 172 C 119.455 173.925, 120.992 175.768, 120.995 176.094 C 120.998 176.421, 122.154 177.996, 123.564 179.594 C 128.576 185.273, 135.135 200.280, 138.998 214.906 C 141.496 224.367, 139.973 254.783, 136.817 258.450 C 136.368 258.973, 136 260.408, 136 261.641 C 136 262.874, 135.550 264.160, 135 264.500 C 134.450 264.840, 134 265.922, 134 266.905 C 134 268.957, 131.316 274.687, 129.963 275.523 C 129.463 275.832, 128.268 277.753, 127.309 279.792 C 126.350 281.832, 123.525 286.132, 121.032 289.348 C 118.540 292.565, 116.052 295.828, 115.505 296.599 C 114.739 297.677, 117.793 301.284, 128.733 312.224 L 142.957 326.448 147.084 322.474 C 149.354 320.288, 152.300 316.925, 153.630 315 C 154.960 313.075, 157.363 309.700, 158.969 307.500 C 162.253 303.001, 170.852 286.202, 173.916 278.298 C 182.484 256.198, 184.047 226.522, 177.987 201 C 175.342 189.860, 169.140 174.170, 164.355 166.514 C 157.666 155.808, 144.950 140, 143.029 140 C 142.724 140, 136.106 146.412, 128.322 154.250" stroke="none" fill="#fcd1b6" fill-rule="evenodd"/><path d="M 7.667 7.667 C 7.300 8.033, 7 109.508, 7 233.167 L 7 458 27.500 458 L 48 458 48 370.199 L 48 282.398 55.750 281.034 C 60.012 280.284, 64.175 279.343, 65 278.944 C 65.825 278.545, 68.544 277.247, 71.043 276.059 C 77.441 273.016, 87.069 264.127, 90.204 258.367 C 94.962 249.624, 96.277 244.235, 96.392 233 C 96.504 222.079, 95.210 215.816, 91.814 210.846 C 90.816 209.386, 90 207.755, 90 207.222 C 90 205.124, 77.877 193.251, 73.054 190.626 C 66.915 187.285, 63.568 186.178, 55 184.655 L 48.500 183.500 48.245 95.250 L 47.989 7 28.161 7 C 17.256 7, 8.033 7.300, 7.667 7.667 M 248.543 33.957 L 234.612 47.914 236.540 50.207 C 237.600 51.468, 241.175 55.425, 244.484 59 C 251.524 66.606, 263.111 82.202, 270.566 94.105 C 276.957 104.309, 291 131.861, 291 134.196 C 291 135.123, 291.388 136.122, 291.863 136.415 C 292.337 136.709, 293.299 138.997, 294 141.500 C 294.701 144.003, 295.663 146.291, 296.137 146.585 C 296.612 146.878, 297 147.998, 297 149.073 C 297 150.148, 297.406 151.809, 297.903 152.764 C 298.749 154.393, 299.448 156.824, 302.068 167.250 C 302.655 169.588, 303.512 172.850, 303.973 174.500 C 304.434 176.150, 305.286 180.425, 305.868 184 C 311.805 220.492, 312.058 241.040, 307 276 C 306.483 279.575, 305.775 284.525, 305.427 287 C 305.080 289.475, 304.391 291.927, 303.898 292.450 C 303.404 292.972, 303 294.414, 303 295.653 C 303 296.892, 302.597 298.940, 302.104 300.203 C 301.611 301.466, 300.653 304.525, 299.974 307 C 298.795 311.295, 297.589 314.844, 292.920 327.750 C 290.104 335.531, 277.630 360.589, 273.294 367.172 C 271.365 370.103, 268.926 374.075, 267.875 376 C 266.825 377.925, 264.400 381.525, 262.487 384 C 260.575 386.475, 257.887 390.075, 256.514 392 C 251.326 399.277, 249.308 401.697, 242.500 408.806 C 238.650 412.826, 235.333 416.591, 235.128 417.173 C 234.617 418.628, 261.088 445, 263.060 445 C 265.531 445, 280.229 428.940, 290.500 415.019 C 292.150 412.782, 294.850 409.211, 296.500 407.082 C 298.150 404.954, 301.300 400.206, 303.500 396.532 C 305.700 392.858, 308.581 388.198, 309.903 386.176 C 315.789 377.174, 329.851 347.207, 334.388 334 C 335.238 331.525, 336.683 327.475, 337.600 325 C 338.516 322.525, 339.655 318.813, 340.133 316.750 C 341.081 312.650, 342.530 306.721, 344.103 300.500 C 346.995 289.065, 349.645 269.611, 351.069 249.359 C 352.089 234.860, 352.099 227.935, 351.118 214.859 C 350.443 205.862, 349.662 197.150, 349.383 195.500 C 348.608 190.926, 347.103 180.090, 346.466 174.500 C 346.152 171.750, 345.520 168.600, 345.062 167.500 C 344.253 165.560, 342.896 160.746, 340.835 152.500 C 338.690 143.920, 337.620 140.463, 336.826 139.550 C 336.372 139.027, 336 137.592, 336 136.359 C 336 135.126, 335.550 133.840, 335 133.500 C 334.450 133.160, 334 131.874, 334 130.641 C 334 129.408, 333.619 127.973, 333.153 127.450 C 332.687 126.928, 330.812 122.675, 328.986 118 C 321.147 97.929, 305.697 70.872, 290.729 51 C 281.524 38.780, 265.179 20.231, 263.487 20.087 C 262.929 20.039, 256.205 26.281, 248.543 33.957 M 188.610 93.890 C 179.438 103.079, 175.007 108.203, 175.517 109.028 C 175.942 109.715, 178.205 112.352, 180.547 114.888 C 186.751 121.607, 200 139.742, 200 141.515 C 200 141.859, 201.255 144.021, 202.789 146.320 C 205.408 150.246, 208.995 157.322, 211.243 163 C 211.788 164.375, 212.631 166.281, 213.117 167.236 C 213.603 168.191, 214 169.640, 214 170.456 C 214 171.272, 214.809 173.415, 215.798 175.220 C 216.787 177.024, 218.621 183, 219.874 188.500 C 221.127 194, 222.591 200.075, 223.128 202 C 224.785 207.944, 225.442 245.803, 224.069 256.212 C 222.214 270.267, 218.153 286.468, 214.433 294.651 C 213.645 296.384, 213 298.148, 213 298.571 C 213 300.149, 200.864 323.868, 199.460 325.033 C 198.657 325.700, 197.998 326.752, 197.996 327.372 C 197.993 327.993, 196.193 330.872, 193.996 333.770 C 191.798 336.669, 189.995 339.369, 189.989 339.770 C 189.983 340.172, 188.283 342.300, 186.210 344.500 C 184.137 346.700, 180.689 350.666, 178.548 353.314 L 174.654 358.128 188.564 372.064 C 200.963 384.487, 204.957 387.687, 205.019 385.250 C 205.030 384.837, 208.612 380.675, 212.980 376 C 217.347 371.325, 220.938 367.022, 220.960 366.437 C 220.982 365.852, 222.350 364.081, 224 362.500 C 225.650 360.919, 227 359.105, 227 358.468 C 227 357.831, 227.900 356.495, 229 355.500 C 230.100 354.505, 231 353.140, 231 352.467 C 231 351.795, 231.683 350.678, 232.518 349.985 C 233.354 349.292, 234.779 347.099, 235.686 345.112 C 236.593 343.126, 237.980 340.739, 238.769 339.810 C 240.699 337.533, 249 320.914, 249 319.325 C 249 318.630, 249.900 316.458, 251 314.500 C 252.100 312.542, 253 310.079, 253 309.029 C 253 307.978, 253.450 306.840, 254 306.500 C 254.550 306.160, 255 304.810, 255 303.500 C 255 302.190, 255.450 300.840, 256 300.500 C 256.550 300.160, 257 299.002, 257 297.927 C 257 296.852, 257.424 295.191, 257.942 294.236 C 259.041 292.210, 262.571 277.527, 263.528 271 C 265.504 257.528, 266.016 252.172, 266.617 238.686 C 267.471 219.497, 265.163 198.423, 260.081 179 C 259.002 174.875, 257.829 170.375, 257.476 169 C 257.122 167.625, 256.464 165.600, 256.014 164.500 C 255.564 163.400, 254.203 159.800, 252.991 156.500 C 250.090 148.601, 239.346 126.614, 235.800 121.320 C 234.260 119.021, 233 116.852, 233 116.500 C 233 115.807, 227.023 106.819, 226.018 106 C 225.680 105.725, 224.322 103.925, 223 102 C 221.678 100.075, 220.350 98.275, 220.048 98 C 219.747 97.725, 217.026 94.575, 214.002 91 C 207.166 82.918, 204.322 80, 203.282 80 C 202.837 80, 196.235 86.251, 188.610 93.890 M 128.322 154.250 L 114.170 168.500 117.580 172 C 119.455 173.925, 120.992 175.768, 120.995 176.094 C 120.998 176.421, 122.154 177.996, 123.564 179.594 C 128.576 185.273, 135.135 200.280, 138.998 214.906 C 141.496 224.367, 139.973 254.783, 136.817 258.450 C 136.368 258.973, 136 260.408, 136 261.641 C 136 262.874, 135.550 264.160, 135 264.500 C 134.450 264.840, 134 265.922, 134 266.905 C 134 268.957, 131.316 274.687, 129.963 275.523 C 129.463 275.832, 128.268 277.753, 127.309 279.792 C 126.350 281.832, 123.525 286.132, 121.032 289.348 C 118.540 292.565, 116.052 295.828, 115.505 296.599 C 114.739 297.677, 117.793 301.284, 128.733 312.224 L 142.957 326.448 147.084 322.474 C 149.354 320.288, 152.300 316.925, 153.630 315 C 154.960 313.075, 157.363 309.700, 158.969 307.500 C 162.253 303.001, 170.852 286.202, 173.916 278.298 C 182.484 256.198, 184.047 226.522, 177.987 201 C 175.342 189.860, 169.140 174.170, 164.355 166.514 C 157.666 155.808, 144.950 140, 143.029 140 C 142.724 140, 136.106 146.412, 128.322 154.250" stroke="none" fill="#fc954e" fill-rule="evenodd"/></svg>